<svg width="500" height="449" viewBox="0 0 500 449" fill="none" xmlns="http://www.w3.org/2000/svg">
<path d="M38.3717 54.2771V383.544H461.633V54.2771H38.3717ZM453.099 375.489H46.9013V62.332H453.099V375.489Z" fill="#6B98DF"/>
<path d="M453.103 62.332H46.9012V375.489H453.103V62.332Z" fill="white"/>
<g opacity="0.2">
<path d="M221.198 62.332L46.9012 226.886V174.987L166.233 62.332H221.198Z" fill="#ECECEC"/>
<path d="M453.099 175.667V227.566L296.449 375.489H241.484L453.099 175.667Z" fill="#ECECEC"/>
<path d="M453.099 69.8211V95.7704L156.832 375.489H129.349L453.099 69.8211Z" fill="#ECECEC"/>
<path d="M453.099 336.251V362.195L439.024 375.489H411.542L453.099 336.251Z" fill="#ECECEC"/>
<path d="M94.4506 62.332L46.9012 107.248V81.2806L66.9679 62.332H94.4506Z" fill="#ECECEC"/>
<path d="M299.891 62.332L46.9012 301.187V294.725L293.013 62.332H299.891Z" fill="#ECECEC"/>
<path d="M432.763 62.332L101.082 375.489H94.2178L425.885 62.332H432.763Z" fill="#ECECEC"/>
<path d="M453.099 304.231V310.707L384.511 375.489H377.629L453.099 304.231Z" fill="#ECECEC"/>
<path d="M136.277 62.332L46.9012 146.738V140.244L129.431 62.332H136.277Z" fill="#ECECEC"/>
</g>
<path d="M187.003 54.2771H178.473V383.544H187.003V54.2771Z" fill="#6B98DF"/>
<path d="M477.273 61.7662H22.7273C49.9316 38.8472 55.4126 20.4053 55.4126 20.4053H444.565C444.565 20.4053 450.05 38.8427 477.273 61.7662Z" fill="#E35757"/>
<path d="M116.982 20.4053C116.475 24.0243 115.932 27.7346 114.64 31.2943C114.097 33.0787 113.271 34.8448 112.568 36.6064C112.19 37.4918 111.669 38.3589 111.231 39.2351C110.793 40.1114 110.346 40.9876 109.78 41.841C107.694 45.2957 105.285 48.7094 102.346 52.0135C100.872 53.6747 99.3519 55.3222 97.7273 56.9332C96.0433 58.5442 94.2588 60.1232 92.3466 61.6566L92.2782 61.7251V61.7707H58.1599C60.3049 60.283 62.217 58.7404 64.0836 57.1842C66.0186 55.596 67.8532 53.9805 69.5327 52.3193C72.9098 49.0106 76.0314 45.638 78.5688 42.1468C81.1519 38.6784 83.2922 35.1187 84.812 31.4996C86.4138 27.8806 87.1395 24.079 87.3448 20.4053H116.982ZM173.763 20.4053C173.535 22.1577 173.384 24.0015 173.22 25.7265L172.577 30.9474C171.965 34.4158 171.55 37.8843 170.642 41.3299C170.24 43.0595 169.743 44.7755 169.282 46.5051C168.761 48.2119 168.2 49.937 167.543 51.6347C166.146 55.0347 164.686 58.4575 162.208 61.6931L162.194 61.7388V61.7753H128.062C129.92 60.2647 131.371 58.6628 132.808 57.0747C134.26 55.4272 135.551 53.766 136.679 52.0728C138.924 48.6866 140.813 45.241 142.164 41.736C142.776 39.9836 143.456 38.2311 143.871 36.4695C144.099 35.5842 144.377 34.7079 144.537 33.818L144.975 31.1574C145.149 30.2811 145.231 29.3821 145.286 28.4967L145.468 25.8361C145.491 24.0608 145.409 22.1714 145.308 20.4098H173.763V20.4053ZM234.502 20.4053C234.191 22.3311 234.018 24.3574 233.762 26.2833L233.242 32.0427C232.932 35.8808 232.795 39.728 232.539 43.5661C232.457 47.4133 232.261 51.2651 232.261 55.0986C232.247 57.3211 232.261 59.5482 232.306 61.7707H197.955C198.635 60.0776 199.119 58.3844 199.594 56.6776C200.1 54.9708 200.516 53.2548 200.826 51.5252C201.447 48.1024 202.049 44.6477 202.277 41.2021C202.533 37.7565 202.761 34.3109 202.633 30.8562C202.61 29.1265 202.528 27.4106 202.428 25.6809C202.277 23.965 202.14 22.1303 201.908 20.4053H234.502ZM267.689 61.7707C267.735 59.5482 267.748 57.3211 267.735 55.0986C267.735 51.2605 267.538 47.4133 267.456 43.5661C267.201 39.728 267.064 35.8808 266.753 32.0427L266.233 26.2833C265.977 24.3574 265.809 22.3311 265.494 20.4053H298.079C297.846 22.1349 297.709 23.965 297.558 25.6809C297.453 27.4106 297.376 29.1265 297.353 30.8562C297.225 34.3109 297.458 37.7565 297.709 41.2021C297.937 44.6477 298.54 48.1024 299.16 51.5252C299.471 53.2548 299.886 54.9708 300.392 56.6776C300.867 58.3844 301.351 60.0776 302.031 61.7707H267.689ZM337.806 61.7707V61.7342L337.769 61.6886C335.314 58.4529 333.854 55.0301 332.457 51.6302C331.8 49.937 331.234 48.2074 330.718 46.5005C330.257 44.7709 329.76 43.0549 329.358 41.3253C328.45 37.8797 328.035 34.4113 327.423 30.9429L326.78 25.722C326.62 23.9923 326.469 22.1486 326.237 20.4007H354.687C354.582 22.1623 354.504 24.0517 354.527 25.8269L354.71 28.4876C354.769 29.3729 354.847 30.272 355.02 31.1482L355.458 33.8089C355.618 34.6942 355.896 35.5705 356.124 36.4604C356.54 38.222 357.22 39.9744 357.831 41.7269C359.178 45.2318 361.067 48.6774 363.317 52.0637C364.444 53.7568 365.736 55.418 367.187 57.0655C368.629 58.6537 370.08 60.2556 371.933 61.7662H337.806V61.7707ZM407.726 61.7707V61.7251L407.658 61.6566C405.746 60.1232 403.961 58.5442 402.277 56.9332C400.653 55.3222 399.133 53.6701 397.659 52.0135C394.72 48.7048 392.31 45.2957 390.224 41.841C389.659 40.9876 389.211 40.1114 388.773 39.2351C388.335 38.3589 387.815 37.4964 387.436 36.6064C386.733 34.8448 385.903 33.0787 385.364 31.2943C384.073 27.7346 383.534 24.0243 383.023 20.4053H412.66C412.865 24.079 413.595 27.8852 415.192 31.4996C416.712 35.1187 418.857 38.6784 421.436 42.1468C423.969 45.638 427.095 49.0152 430.472 52.3193C432.156 53.9805 433.986 55.5915 435.921 57.1842C437.787 58.7404 439.7 60.283 441.845 61.7707H407.726Z" fill="#FFF0F0"/>
<path d="M477.264 61.7662H22.7365V75.2337H477.264V61.7662Z" fill="#E35757"/>
<path d="M92.6342 75.2291H57.6716L58.1919 61.7707H92.1139L92.6342 75.2291Z" fill="#FFF0F0"/>
<path d="M162.564 75.2291H127.606L128.122 61.7707H162.048L162.564 75.2291Z" fill="#FFF0F0"/>
<path d="M232.498 75.2291H197.536L198.056 61.7707H231.978L232.498 75.2291Z" fill="#FFF0F0"/>
<path d="M302.428 75.2291H267.456L267.986 61.7707H301.912L302.428 75.2291Z" fill="#FFF0F0"/>
<path d="M371.833 61.7707H337.911L337.391 75.2291H372.362L371.833 61.7707ZM371.933 73.1663H371.993L372.038 73.2804C372.015 73.2667 372.015 73.2575 371.993 73.2347C371.979 73.2119 371.956 73.1891 371.933 73.1663Z" fill="#FFF0F0"/>
<path d="M371.99 73.1663L372.034 73.2753C372.012 73.2622 372.012 73.2535 371.99 73.2317C371.977 73.2099 371.955 73.1881 371.933 73.1663H371.99Z" fill="#FFC800"/>
<path d="M441.762 61.7707H407.84L407.32 75.2291H442.283L441.762 61.7707ZM441.845 73.1663H441.936L441.995 73.2941C441.972 73.2804 441.949 73.2575 441.936 73.2347C441.913 73.2119 441.867 73.1891 441.845 73.1663Z" fill="#FFF0F0"/>
<path d="M441.931 73.1663L441.987 73.2875C441.966 73.2745 441.944 73.2529 441.931 73.2312C441.91 73.2096 441.866 73.1879 441.845 73.1663H441.931Z" fill="#FFC800"/>
<g opacity="0.1">
<path d="M87.3449 20.4052C87.1395 24.079 86.4093 27.8852 84.812 31.4996C83.2923 35.1186 81.1473 38.6783 78.5688 42.1468C76.036 45.638 72.9098 49.0151 69.5327 52.3193C67.8487 53.9805 66.0186 55.5914 64.0836 57.1842C62.2171 58.7404 60.3049 60.2829 58.1599 61.7707C58.1371 61.7935 58.0915 61.8072 58.0686 61.83C58.055 61.8437 58.0321 61.8665 58.0093 61.8757L58.0686 61.7707H57.3202V61.7251L57.3887 61.6566C61.2952 58.535 64.7727 55.2629 68.0358 51.9679C71.3445 48.6729 74.1557 45.2729 76.8392 41.8501C79.5683 38.4273 81.5626 34.8996 83.4748 31.3536L84.7435 28.6793C85.1451 27.7939 85.387 26.872 85.7704 25.973C86.5736 24.1703 86.7653 22.2353 87.3449 20.4052ZM116 31.3855C115.206 35.0046 113.499 38.5779 111.542 42.0783C109.607 45.6061 106.887 49.0151 103.865 52.3467C100.844 55.6188 97.3303 58.8089 93.1043 61.7707C93.0906 61.7844 93.0678 61.8072 93.0449 61.8072C93.0312 61.8209 93.0084 61.83 92.9993 61.8437L93.0449 61.7753H92.2737V61.7296L92.3421 61.6612C94.2543 60.1278 96.0387 58.5487 97.7227 56.9377C99.3474 55.3268 100.867 53.6747 102.341 52.0181C105.28 48.7094 107.69 45.3003 109.775 41.8456C110.341 40.9921 110.789 40.1159 111.227 39.2397C111.665 38.3634 112.185 37.5009 112.564 36.611C113.267 34.8494 114.097 33.0832 114.636 31.2988C115.927 27.7391 116.466 24.0288 116.977 20.4098C117.164 24.0197 117.014 27.7893 116 31.3855ZM234.734 32.0518C234.712 35.899 234.538 39.7371 234.456 43.5843C234.201 47.4315 234.064 51.2696 233.73 55.1168C233.548 57.3302 233.352 59.5527 233.11 61.7661H232.316C232.27 59.5436 232.256 57.3165 232.27 55.094C232.27 51.2559 232.466 47.4087 232.548 43.5615C232.804 39.7234 232.941 35.8762 233.251 32.0381L233.772 26.2787C234.027 24.3529 234.196 22.3266 234.511 20.4007C234.639 22.3266 234.639 24.3665 234.716 26.2879L234.734 32.0518ZM267.735 55.0986C267.748 57.3211 267.735 59.5482 267.689 61.7707H266.895C266.653 59.5573 266.457 57.3348 266.274 55.1214C265.941 51.2742 265.8 47.4361 265.549 43.5889C265.466 39.7417 265.293 35.9036 265.27 32.0564L265.293 26.297C265.375 24.3711 265.375 22.3311 265.498 20.4098C265.809 22.3357 265.982 24.362 266.238 26.2879L266.758 32.0473C267.068 35.8854 267.205 39.7326 267.461 43.5706C267.538 47.4133 267.735 51.2605 267.735 55.0986ZM202.282 41.2021C202.054 44.6477 201.451 48.1024 200.831 51.5252C200.52 53.2548 200.105 54.9708 199.598 56.6776C199.124 58.3844 198.64 60.0776 197.96 61.7707H197.143V61.7251C198.065 58.3251 198.585 54.8932 199.16 51.4567C199.749 48.0339 200.037 44.602 200.452 41.1564C200.853 37.7337 200.995 34.2881 201.292 30.8561L201.912 20.4052C202.14 22.1349 202.282 23.9649 202.433 25.6809C202.537 27.4105 202.615 29.1265 202.638 30.8561C202.766 34.3109 202.537 37.7565 202.282 41.2021ZM174.051 25.7402C174.051 27.4927 173.982 29.2315 173.923 30.9839C173.74 34.4752 173.22 37.9573 172.472 41.4348C171.783 44.9169 170.591 48.358 169.154 51.7944C168.451 53.5104 167.552 55.2035 166.562 56.8875C165.558 58.5487 164.499 60.1825 163.002 61.7753C163.002 61.789 162.979 61.7981 162.979 61.8118C162.966 61.8118 162.956 61.8118 162.956 61.8255L162.979 61.7798H162.194V61.7433L162.208 61.6977C164.686 58.462 166.151 55.0392 167.543 51.6393C168.2 49.9461 168.766 48.2165 169.282 46.5097C169.743 44.78 170.24 43.0641 170.642 41.3344C171.55 37.8888 171.965 34.4204 172.577 30.952L173.22 25.7311C173.38 24.0014 173.531 22.1577 173.763 20.4098C173.905 22.1531 173.973 23.9969 174.051 25.7402ZM145.477 25.8315L145.295 28.4921C145.236 29.3775 145.158 30.2766 144.985 31.1528L144.546 33.8134C144.387 34.6988 144.108 35.575 143.88 36.4649C143.465 38.2265 142.785 39.979 142.173 41.7315C140.827 45.2364 138.938 48.682 136.688 52.0683C135.56 53.7614 134.269 55.4226 132.818 57.0701C131.376 58.6583 129.924 60.2601 128.071 61.7707C128.049 61.7935 128.026 61.8072 128.012 61.83C127.989 61.8437 127.989 61.8529 127.966 61.8665L128.012 61.7753H127.236V61.7296L127.273 61.6703C130.522 58.535 132.918 55.1716 135.086 51.8173C137.263 48.4538 138.865 45.0173 140.361 41.5626C141.758 38.1079 142.803 34.6029 143.634 31.098C144.131 29.3456 144.254 27.584 144.624 25.8224C144.925 24.0608 145.026 22.1714 145.313 20.4052C145.418 22.1668 145.5 24.0562 145.477 25.8315ZM442.685 61.7707H441.936L441.995 61.8757C441.973 61.862 441.95 61.8392 441.936 61.83C441.913 61.8072 441.868 61.7935 441.845 61.7707C439.7 60.2829 437.788 58.7404 435.921 57.1842C433.986 55.596 432.151 53.9805 430.472 52.3193C427.095 49.0106 423.973 45.638 421.436 42.1468C418.853 38.6783 416.712 35.1186 415.193 31.4996C413.591 27.8806 412.865 24.079 412.66 20.4052C413.235 22.2353 413.431 24.1749 414.239 25.973C414.618 26.872 414.86 27.7939 415.266 28.6793L416.534 31.3536C418.447 34.9042 420.441 38.4273 423.17 41.8501C425.854 45.2729 428.665 48.6729 431.973 51.9679C435.237 55.2629 438.714 58.535 442.621 61.6566L442.689 61.7251V61.7707H442.685ZM407.726 61.7707H406.955L407.001 61.8392C406.987 61.8255 406.964 61.8163 406.955 61.8027C406.932 61.8027 406.91 61.7798 406.896 61.7661C402.665 58.8043 399.151 55.6143 396.135 52.3421C393.113 49.0106 390.398 45.6015 388.458 42.0737C386.501 38.5688 384.794 35 384 31.381C382.987 27.7848 382.836 24.0197 383.019 20.4007C383.525 24.0197 384.068 27.73 385.36 31.2897C385.903 33.0741 386.729 34.8403 387.432 36.6019C387.81 37.4872 388.331 38.3543 388.769 39.2305C389.207 40.1068 389.654 40.983 390.22 41.8364C392.306 45.2912 394.715 48.7048 397.654 52.0089C399.128 53.6701 400.648 55.3176 402.273 56.9286C403.957 58.5396 405.741 60.1186 407.653 61.6521L407.722 61.7205V61.7707H407.726ZM302.857 61.7251V61.7707H302.04C301.36 60.0776 300.876 58.3844 300.402 56.6776C299.895 54.9708 299.48 53.2548 299.169 51.5252C298.549 48.1024 297.946 44.6477 297.718 41.2021C297.463 37.7565 297.234 34.3109 297.362 30.8561C297.385 29.1265 297.467 27.4105 297.568 25.6809C297.718 23.9649 297.855 22.1303 298.088 20.4052L298.709 30.8561C299.01 34.2881 299.147 37.7337 299.548 41.1564C299.964 44.602 300.251 48.0339 300.84 51.4567C301.415 54.8932 301.935 58.3251 302.857 61.7251ZM337.806 61.7707H337.021L337.044 61.8163C337.044 61.8027 337.03 61.8027 337.021 61.8027C337.021 61.789 336.998 61.7798 336.998 61.7661C335.501 60.178 334.438 58.5396 333.438 56.8784C332.448 55.1944 331.549 53.5013 330.846 51.7853C329.404 48.3534 328.218 44.9078 327.528 41.4257C326.78 37.9436 326.26 34.466 326.077 30.9748C326.018 29.2223 325.949 27.4836 325.949 25.7311C326.032 23.9923 326.1 22.1486 326.237 20.3961C326.47 22.1486 326.616 23.9923 326.78 25.7174L327.423 30.9383C328.035 34.4067 328.45 37.8751 329.358 41.3207C329.76 43.0504 330.258 44.7663 330.718 46.496C331.239 48.2028 331.8 49.9279 332.457 51.6256C333.854 55.0255 335.314 58.4483 337.769 61.684L337.806 61.7296V61.7707ZM372.764 61.7707H371.993L372.038 61.862C372.015 61.8483 372.015 61.8392 371.993 61.8255C371.979 61.8027 371.956 61.789 371.933 61.7661C370.076 60.2556 368.625 58.6537 367.187 57.0655C365.736 55.418 364.444 53.7568 363.317 52.0637C361.072 48.6774 359.182 45.2318 357.831 41.7269C357.22 39.9744 356.54 38.222 356.125 36.4604C355.892 35.575 355.618 34.6988 355.458 33.8089L355.02 31.1482C354.847 30.272 354.765 29.3729 354.71 28.4876L354.527 25.8269C354.505 24.0516 354.587 22.1623 354.687 20.4007C354.975 22.1623 355.08 24.0517 355.376 25.8178C355.746 27.5794 355.874 29.3456 356.366 31.0935C357.197 34.5984 358.247 38.0988 359.639 41.558C361.136 45.0128 362.737 48.4492 364.914 51.8127C367.082 55.167 369.478 58.5305 372.727 61.6657L372.764 61.7251V61.7707Z" fill="black"/>
</g>
<g opacity="0.1">
<path d="M337.016 73.1617L337.057 73.253C337.034 73.2393 337.035 73.2119 337.016 73.2028C337.016 73.1891 336.993 73.1754 336.993 73.1617H337.016ZM372.038 73.2804C372.015 73.2667 372.015 73.2576 371.993 73.2348C371.979 73.2119 371.956 73.1891 371.933 73.1663H371.993L372.038 73.2804ZM406.955 73.1617L407.037 73.2895C407.014 73.2621 406.973 73.2393 406.955 73.2119C406.932 73.1983 406.914 73.1709 406.891 73.1617H406.955ZM441.995 73.2941C441.972 73.2804 441.95 73.2576 441.936 73.2348C441.913 73.2119 441.867 73.1891 441.845 73.1663H441.936L441.995 73.2941Z" fill="black"/>
<path d="M58.1919 61.7707L57.6716 75.2291L57.1514 61.7707H58.1919Z" fill="black"/>
<path d="M93.1499 61.7707L92.6342 75.2291L92.1139 61.7707H93.1499Z" fill="black"/>
<path d="M128.122 61.7707L127.606 75.2291L127.086 61.7707H128.122Z" fill="black"/>
<path d="M163.084 61.7707L162.564 75.2291L162.048 61.7707H163.084Z" fill="black"/>
<path d="M198.056 61.7707L197.536 75.2291L197.006 61.7707H198.056Z" fill="black"/>
<path d="M233.014 61.7707L232.498 75.2291L231.978 61.7707H233.014Z" fill="black"/>
<path d="M267.986 61.7707L267.456 75.2291L266.941 61.7707H267.986Z" fill="black"/>
<path d="M302.948 61.7707L302.428 75.2291L301.912 61.7707H302.948Z" fill="black"/>
<path d="M337.906 61.7707L337.391 75.2291L336.87 61.7707H337.906Z" fill="black"/>
<path d="M372.878 61.7707L372.362 75.2291L371.833 61.7707H372.878Z" fill="black"/>
<path d="M407.841 61.7707L407.32 75.2291L406.805 61.7707H407.841Z" fill="black"/>
<path d="M442.812 61.7707L442.283 75.2291L441.763 61.7707H442.812Z" fill="black"/>
</g>
<path d="M152.734 123.719H63.1754V131.627H152.734V123.719Z" fill="#C8C8C8"/>
<path d="M152.734 198.586H63.1754V206.495H152.734V198.586Z" fill="#C8C8C8"/>
<path d="M152.734 273.458H63.1754V281.367H152.734V273.458Z" fill="#C8C8C8"/>
<path d="M152.734 348.326H63.1754V356.235H152.734V348.326Z" fill="#C8C8C8"/>
<path d="M152.734 198.604H63.1754V206.513H152.734V198.604Z" fill="#C8C8C8"/>
<path d="M142.123 123.372C140.01 124.061 79.5957 124.243 77.3047 122.769C76.433 122.217 75.6161 112.291 76.5152 102L115.448 102.324C115.448 102.324 137.746 112.834 140.088 114.719C142.411 116.599 144.236 122.678 142.123 123.372Z" fill="#FFAE01"/>
<path d="M143.013 122.034C142.917 122.71 142.634 123.198 142.119 123.376C140.006 124.065 79.5957 124.243 77.2956 122.765C77.0948 122.628 76.8894 121.966 76.7114 120.898H127.784C127.985 119.451 128.651 116.877 130.627 114.942C132.507 113.117 134.849 112.642 136.286 112.533C138.18 113.523 139.577 114.322 140.074 114.714C141.548 115.905 142.821 118.776 143.027 120.898C143.068 121.304 143.068 121.697 143.013 122.034Z" fill="white"/>
<path d="M141.274 120.948C131.152 120.629 90.3021 120.291 80.2711 120.743C80.1889 120.748 80.1889 120.802 80.2711 120.807C90.2976 121.345 131.152 121.35 141.274 121.117C141.484 121.108 141.484 120.953 141.274 120.948ZM136.213 112.515C133.812 112.401 131.458 113.523 130.139 114.943C128.87 116.307 127.784 118.233 127.839 120.332C127.839 120.392 127.953 120.396 127.962 120.332C128.569 116.376 132.197 112.921 136.213 112.642C136.295 112.633 136.295 112.519 136.213 112.515ZM118.615 103.36C114.563 103.273 109.858 104.67 107.316 107.969C107.215 108.097 107.402 108.234 107.521 108.175C111.199 106.313 114.691 104.93 118.684 103.862C118.962 103.784 118.903 103.364 118.615 103.36ZM121.732 104.601C117.68 104.514 112.975 105.911 110.433 109.21C110.332 109.338 110.519 109.475 110.638 109.416C114.316 107.554 117.808 106.171 121.801 105.103C122.079 105.026 122.024 104.606 121.732 104.601ZM124.854 105.842C120.801 105.756 116.096 107.152 113.554 110.452C113.454 110.58 113.641 110.717 113.76 110.657C117.438 108.795 120.929 107.412 124.922 106.344C125.201 106.267 125.141 105.847 124.854 105.842ZM127.971 107.084C123.918 106.997 119.213 108.394 116.671 111.693C116.571 111.821 116.753 111.958 116.877 111.899C120.555 110.037 124.046 108.654 128.039 107.586C128.318 107.508 128.263 107.088 127.971 107.084Z" fill="#1A2E35"/>
<path d="M82.9135 109.411C78.3681 109.393 78.3316 116.458 82.8816 116.476C87.4316 116.494 87.4681 109.43 82.9135 109.411Z" fill="white"/>
<path d="M123.074 92.5849C121.03 90.8644 118.433 92.5027 117.16 94.2643C115.535 96.496 114.289 99.4487 113.723 102.306C113.627 102.712 113.559 103.118 113.509 103.524C113.481 103.702 113.468 103.876 113.44 104.04C113.454 104.053 113.454 104.053 113.44 104.053C113.44 104.108 113.44 104.149 113.426 104.19C113.426 104.327 113.413 104.46 113.399 104.597C113.399 104.692 113.467 104.72 113.536 104.72C113.577 104.911 113.737 105.085 113.942 105.112C114.038 105.14 114.143 105.126 114.252 105.058C115.051 104.514 115.891 103.976 116.731 103.433C116.881 103.337 117.027 103.241 117.178 103.15C119.222 101.822 121.226 100.416 122.714 98.5223C123.996 96.8748 125 94.1959 123.074 92.5849ZM118.04 101.151C117.365 101.639 116.671 102.1 115.996 102.57C115.412 102.976 114.818 103.396 114.248 103.83C114.179 103.871 114.111 103.926 114.047 103.98C113.979 104.035 113.896 104.09 113.833 104.145C113.86 104.063 113.887 103.994 113.915 103.917C113.915 103.903 113.928 103.903 113.928 103.889C114.12 103.36 114.307 102.835 114.499 102.306C114.987 100.9 115.498 99.5035 116.165 98.1617C116.612 97.2399 117.087 96.2952 117.652 95.4418C118.547 94.1 122.554 90.7457 122.919 95.1588C123.115 97.5913 119.706 99.9462 118.04 101.151Z" fill="#1A2E35"/>
<path d="M114.275 104.359C114.33 104.318 114.344 104.25 114.289 104.195C114.207 104.126 114.125 104.044 114.047 103.98C114.02 103.953 113.979 103.912 113.951 103.898C113.938 103.885 113.938 103.871 113.924 103.885C113.787 103.748 113.655 103.629 113.504 103.52C112.975 103.072 112.422 102.666 111.838 102.287C109.607 100.772 106.978 99.6358 104.513 99.1475C102.387 98.7139 99.3702 99.2707 99.0325 101.909C99.0188 102.004 99.0187 102.1 99.0187 102.178C98.8955 104.505 101.346 105.71 103.322 106.02C105.394 106.358 107.494 106.157 109.588 105.829C111.049 105.601 112.514 105.313 113.933 105.099C113.947 105.099 113.947 105.099 113.96 105.099C114.33 105.053 114.412 104.647 114.275 104.359ZM108.552 104.806C106.508 105.048 102.391 105.633 100.89 103.697C100.429 103.1 100.201 102.616 100.146 102.196C99.8357 100.138 103.651 100.028 104.952 100.343C105.951 100.585 106.941 100.95 107.904 101.334C108.621 101.616 109.324 101.931 110.017 102.283C111.167 102.84 112.304 103.447 113.44 104.044C113.44 104.044 113.454 104.044 113.454 104.058C113.522 104.085 113.604 104.126 113.668 104.168C113.586 104.181 113.504 104.181 113.426 104.195C113.235 104.209 113.034 104.222 112.842 104.25C111.409 104.4 109.985 104.633 108.552 104.806Z" fill="#1A2E35"/>
<path d="M142.123 272.829C140.01 273.518 79.5957 273.7 77.3047 272.226C76.433 271.674 75.6161 261.748 76.5152 251.457L115.448 251.781C115.448 251.781 137.746 262.291 140.088 264.176C142.415 266.056 144.236 272.14 142.123 272.829Z" fill="#6493D8"/>
<path d="M141.274 270.405C131.152 270.086 90.3021 269.748 80.2711 270.2C80.1889 270.204 80.1889 270.259 80.2711 270.264C90.2976 270.802 131.152 270.807 141.274 270.574C141.484 270.57 141.489 270.414 141.274 270.405ZM136.218 261.972C133.817 261.857 131.462 262.98 130.143 264.399C128.875 265.764 127.788 267.69 127.843 269.789C127.843 269.848 127.957 269.853 127.966 269.789C128.573 265.832 132.202 262.378 136.218 262.099C136.295 262.095 136.3 261.976 136.218 261.972ZM118.615 252.817C114.563 252.73 109.858 254.126 107.316 257.426C107.215 257.554 107.402 257.691 107.521 257.631C111.199 255.769 114.691 254.387 118.684 253.319C118.962 253.241 118.907 252.821 118.615 252.817ZM121.737 254.058C117.684 253.971 112.979 255.368 110.437 258.667C110.337 258.795 110.524 258.932 110.643 258.873C114.321 257.011 117.812 255.628 121.805 254.56C122.084 254.482 122.024 254.063 121.737 254.058ZM124.854 255.299C120.801 255.213 116.096 256.609 113.554 259.909C113.454 260.037 113.641 260.173 113.76 260.114C117.438 258.252 120.929 256.869 124.922 255.801C125.201 255.724 125.146 255.309 124.854 255.299ZM127.971 256.541C123.918 256.454 119.213 257.85 116.671 261.15C116.571 261.278 116.753 261.415 116.877 261.355C120.555 259.493 124.046 258.111 128.039 257.043C128.322 256.965 128.263 256.55 127.971 256.541ZM82.918 260.602C78.3726 260.584 78.3361 267.649 82.8861 267.667C87.4315 267.685 87.4726 260.621 82.918 260.602Z" fill="#1A2E35"/>
<path d="M123.079 242.037C121.034 240.317 118.437 241.969 117.164 243.717C115.539 245.962 114.294 248.915 113.728 251.772C113.632 252.178 113.563 252.584 113.513 252.976C113.5 253.154 113.472 253.328 113.445 253.492C113.458 253.506 113.445 253.506 113.445 253.506V253.643C113.431 253.793 113.417 253.926 113.404 254.063C113.404 254.145 113.472 254.186 113.541 254.172C113.582 254.364 113.741 254.537 113.947 254.565C114.043 254.592 114.148 254.578 114.257 254.51C115.056 253.967 115.895 253.428 116.735 252.885C116.886 252.803 117.018 252.707 117.169 252.616C119.213 251.288 121.23 249.882 122.718 247.975C123.996 246.327 125 243.662 123.079 242.037ZM118.04 250.608C117.365 251.096 116.671 251.571 115.996 252.041C115.412 252.447 114.846 252.853 114.275 253.273C114.193 253.328 114.111 253.396 114.047 253.451C113.979 253.506 113.897 253.561 113.833 253.615C113.86 253.533 113.887 253.451 113.915 253.374C113.929 253.36 113.929 253.36 113.929 253.346C114.12 252.817 114.307 252.306 114.485 251.776C114.987 250.371 115.498 248.974 116.165 247.619C116.612 246.697 117.087 245.752 117.652 244.899C118.547 243.571 122.554 240.216 122.919 244.629C123.12 247.048 119.706 249.417 118.04 250.608Z" fill="#1A2E35"/>
<path d="M114.28 253.83C114.335 253.789 114.348 253.72 114.294 253.652C114.211 253.57 114.129 253.501 114.052 253.451C114.024 253.396 113.983 253.369 113.956 253.355C113.942 253.342 113.942 253.328 113.928 253.342C113.792 253.191 113.659 253.086 113.509 252.976C112.993 252.529 112.441 252.123 111.87 251.758C109.639 250.257 106.996 249.106 104.518 248.604C102.391 248.171 99.3748 248.728 99.037 251.365C99.0234 251.461 99.0233 251.557 99.0233 251.648C98.9138 253.962 101.351 255.167 103.327 255.491C105.399 255.815 107.521 255.614 109.62 255.29C111.067 255.062 112.518 254.775 113.938 254.56C113.951 254.56 113.951 254.56 113.965 254.56C114.335 254.505 114.412 254.099 114.28 253.83ZM108.552 254.263C106.508 254.519 102.391 255.089 100.89 253.168C100.429 252.57 100.201 252.087 100.146 251.667C99.8357 249.608 103.651 249.499 104.952 249.814C105.951 250.042 106.941 250.421 107.904 250.79C108.635 251.073 109.337 251.397 110.045 251.753C111.195 252.31 112.304 252.917 113.44 253.501L113.454 253.515C113.522 253.556 113.604 253.583 113.668 253.625C113.586 253.625 113.518 253.638 113.44 253.652C113.239 253.666 113.048 253.679 112.847 253.707C111.409 253.857 109.99 254.085 108.552 254.263Z" fill="#1A2E35"/>
<path d="M142.123 349.28C140.01 349.969 79.5957 350.151 77.3047 348.677C76.433 348.125 75.6161 327.89 76.5152 317.603L115.448 317.927C115.448 317.927 115.713 328.355 116.188 328.583C120.067 330.418 138.002 338.948 140.088 340.627C142.415 342.507 144.236 348.586 142.123 349.28Z" fill="#969617"/>
<path d="M141.274 346.856C131.152 346.537 90.3021 346.199 80.2711 346.651C80.1889 346.656 80.1889 346.71 80.2711 346.715C90.2975 347.254 131.152 347.258 141.274 347.025C141.484 347.016 141.489 346.861 141.274 346.856ZM136.218 338.423C133.817 338.309 131.462 339.431 130.143 340.851C128.875 342.215 127.788 344.141 127.843 346.24C127.843 346.3 127.957 346.304 127.966 346.24C128.573 342.284 132.202 338.829 136.218 338.551C136.295 338.546 136.3 338.427 136.218 338.423ZM116.863 321.715C113.134 320.127 108.247 319.67 104.66 321.783C104.523 321.866 104.637 322.062 104.774 322.048C108.881 321.688 112.632 321.706 116.74 322.203C117.027 322.24 117.132 321.829 116.863 321.715ZM117.26 324.937C113.531 323.349 108.644 322.892 105.057 325.005C104.92 325.088 105.034 325.284 105.171 325.27C109.278 324.91 113.029 324.928 117.137 325.425C117.424 325.462 117.525 325.051 117.26 324.937ZM117.652 328.159C113.924 326.571 109.036 326.114 105.449 328.227C105.312 328.31 105.426 328.506 105.563 328.492C109.67 328.132 113.422 328.15 117.529 328.647C117.817 328.684 117.922 328.273 117.652 328.159ZM84.5655 318.087C84.7435 320.232 84.8256 322.381 84.8941 324.526C84.9717 326.671 84.9854 328.821 84.9945 330.966C84.9854 333.111 84.9717 335.26 84.8941 337.405C84.8256 339.55 84.7435 341.699 84.561 343.844C84.383 341.699 84.2963 339.55 84.2278 337.405C84.1502 335.26 84.1365 333.111 84.1274 330.966C84.1365 328.821 84.1502 326.671 84.2278 324.526C84.3054 322.381 84.3875 320.232 84.5655 318.087Z" fill="#1A2E35"/>
<path d="M142.123 198.499C140.01 199.189 79.5957 199.371 77.3047 197.897C76.433 197.345 75.6161 162.638 76.5152 152.347L115.448 152.671C115.448 152.671 115.713 177.575 116.188 177.798C120.067 179.633 138.002 188.163 140.088 189.842C142.415 191.727 144.236 197.81 142.123 198.499Z" fill="#FFC800"/>
<path d="M142.123 198.499C140.01 199.189 79.5957 199.371 77.3047 197.897C76.433 197.345 75.6161 162.638 76.5152 152.347L115.448 152.671C115.448 152.671 115.713 177.575 116.188 177.798C120.067 179.633 138.002 188.163 140.088 189.842C142.415 191.727 144.236 197.81 142.123 198.499Z" fill="#E35757"/>
<path d="M141.274 196.076C131.152 195.757 90.3021 195.419 80.2711 195.871C80.1889 195.875 80.1889 195.93 80.2711 195.935C90.2976 196.473 131.152 196.478 141.274 196.245C141.489 196.24 141.489 196.085 141.274 196.076ZM136.218 187.642C133.817 187.528 131.462 188.651 130.143 190.07C128.875 191.435 127.788 193.361 127.843 195.46C127.843 195.519 127.957 195.524 127.966 195.46C128.573 191.503 132.202 188.049 136.218 187.77C136.295 187.766 136.3 187.647 136.218 187.642ZM116.772 171.122C113.089 169.429 108.219 168.826 104.573 170.834C104.431 170.912 104.545 171.113 104.678 171.103C108.79 170.862 112.546 170.989 116.635 171.606C116.922 171.647 117.036 171.24 116.772 171.122ZM117.073 174.353C113.39 172.66 108.52 172.057 104.874 174.065C104.733 174.143 104.847 174.344 104.979 174.335C109.091 174.093 112.847 174.221 116.936 174.837C117.223 174.882 117.338 174.476 117.073 174.353ZM116.498 167.886C112.815 166.193 107.945 165.591 104.299 167.599C104.158 167.676 104.272 167.877 104.404 167.868C108.516 167.626 112.272 167.754 116.361 168.37C116.648 168.415 116.762 168.009 116.498 167.886ZM116.21 164.655C112.527 162.962 107.658 162.359 104.011 164.367C103.87 164.445 103.984 164.646 104.116 164.637C108.228 164.395 111.984 164.523 116.073 165.139C116.356 165.18 116.47 164.774 116.21 164.655ZM115.918 161.419C112.235 159.726 107.366 159.124 103.719 161.132C103.578 161.209 103.692 161.41 103.824 161.401C107.941 161.159 111.692 161.287 115.781 161.903C116.069 161.949 116.183 161.543 115.918 161.419ZM115.631 158.188C111.948 156.495 107.078 155.893 103.432 157.901C103.29 157.978 103.405 158.179 103.537 158.17C107.649 157.928 111.405 158.056 115.494 158.672C115.781 158.718 115.895 158.311 115.631 158.188ZM117.374 177.589C113.691 175.895 108.822 175.293 105.175 177.301C105.034 177.379 105.148 177.579 105.28 177.57C109.392 177.328 113.148 177.456 117.237 178.072C117.525 178.113 117.639 177.707 117.374 177.589ZM84.5655 152.415C84.7435 155.801 84.8256 159.192 84.8941 162.578C84.9671 165.965 84.958 169.356 84.9945 172.742C84.9626 176.128 84.9626 179.519 84.8941 182.905C84.8256 186.292 84.7435 189.682 84.561 193.069C84.383 189.682 84.2963 186.292 84.2278 182.905C84.1594 179.519 84.1639 176.128 84.1274 172.742C84.1639 169.356 84.1548 165.965 84.2278 162.578C84.3054 159.192 84.3875 155.801 84.5655 152.415Z" fill="#1A2E35"/>
<path d="M459.233 152.237V150.032L189.846 150.032V152.237L459.233 152.237Z" fill="#6B98DF"/>
<path d="M281.823 162.264C281.823 162.264 294.866 155.208 309.593 162.264L316.051 178.469L317.89 314.221L298.047 315.746H293.373L278.569 310.995L269.61 203.474L271.189 178.173L281.823 162.264Z" fill="#FF735D"/>
<path opacity="0.3" d="M281.823 162.264C281.823 162.264 294.866 155.208 309.593 162.264L316.051 178.469L317.89 314.221L298.047 315.746H293.373L278.569 310.995L269.61 203.474L271.189 178.173L281.823 162.264Z" fill="black"/>
<path d="M281.823 162.264C281.823 162.264 294.866 155.208 309.593 162.264L316.051 178.469L317.89 314.221L298.047 315.746H293.373L278.569 310.995L269.61 203.474L271.189 178.173L281.823 162.264Z" fill="#FF735D"/>
<path d="M281.823 162.264C281.823 162.264 294.866 155.208 309.593 162.264L316.051 178.469L317.89 314.221L298.047 315.746H293.373L278.569 310.995L269.61 203.474L271.189 178.173L281.823 162.264Z" fill="#D86060"/>
<path d="M322.234 174.093H269.277L269.341 173.509C269.359 173.331 269.857 169.132 271.888 167.772C273.768 166.512 280.878 164.171 281.239 164.053L297.202 158.535L297.385 158.608C299.612 159.507 319.186 167.416 320.756 168.931C322.873 170.98 322.344 173.568 322.321 173.677L322.234 174.093ZM270.473 173.043H321.349C321.386 172.345 321.29 170.898 320.03 169.684C318.962 168.653 305.851 163.149 297.18 159.653L281.576 165.047C281.503 165.07 274.247 167.457 272.476 168.644C271.317 169.419 270.701 171.715 270.473 173.043Z" fill="#1A2E35"/>
<path d="M297.645 159.352L296.732 158.836C296.751 158.804 298.613 155.464 298.289 152.315C298.211 151.557 297.937 151.023 297.453 150.681C296.431 149.955 294.797 150.334 294.784 150.339L294.537 149.321C294.624 149.303 296.641 148.823 298.056 149.823C298.791 150.343 299.224 151.146 299.334 152.21C299.694 155.692 297.732 159.206 297.645 159.352Z" fill="#1A2E35"/>
<path d="M357.708 267.635C357.708 267.635 335.816 195.465 333.653 190.413C331.49 185.361 324.754 169.242 315.608 164.911L309.593 162.264C309.593 162.264 312.961 177.42 308.151 187.282C303.341 197.144 297.326 228.182 296.842 238.765C296.363 249.348 298.047 315.75 298.047 315.75L335.574 312.861L335.095 276.776L357.708 267.635Z" fill="#FF735D"/>
<path d="M335.113 278.027C335.095 278.027 335.072 277.803 335.049 277.374C335.031 276.89 335.004 276.27 334.976 275.507C334.944 273.887 334.83 271.542 334.707 268.648C334.419 262.857 333.794 254.875 332.872 246.076C331.95 237.277 330.933 229.327 330.244 223.568C329.897 220.688 329.637 218.356 329.486 216.741C329.404 215.933 329.372 215.303 329.34 214.879C329.313 214.454 329.313 214.226 329.331 214.226C329.349 214.226 329.39 214.445 329.45 214.869C329.513 215.349 329.596 215.965 329.696 216.718C329.924 218.393 330.239 220.702 330.627 223.522C331.412 229.268 332.494 237.213 333.415 246.021C334.342 254.829 334.903 262.829 335.095 268.635C335.168 271.537 335.227 273.883 335.195 275.507C335.182 276.27 335.172 276.89 335.168 277.374C335.145 277.803 335.131 278.027 335.113 278.027ZM327.743 244.1C327.734 244.109 327.588 244.123 327.318 244.132C327.003 244.141 326.615 244.155 326.141 244.168C325.068 244.187 323.617 244.219 321.805 244.251L321.961 244.077C322.736 250.051 323.969 260.082 325.306 271.45L325.347 271.797L325.055 271.555C327.003 271.391 328.911 271.231 330.746 271.076L330.499 271.341C330.513 267.453 330.212 263.797 329.879 260.511C329.541 257.225 329.162 254.309 328.829 251.881C328.487 249.503 328.208 247.573 328.007 246.167C327.916 245.542 327.843 245.036 327.788 244.629C327.743 244.283 327.738 244.123 327.743 244.1C327.747 244.077 327.811 244.278 327.889 244.62C327.971 245.022 328.076 245.524 328.199 246.145C328.455 247.473 328.801 249.412 329.18 251.84C329.559 254.268 329.979 257.184 330.349 260.475C330.714 263.765 331.038 267.43 331.038 271.359V271.601L330.791 271.624C328.952 271.783 327.049 271.943 325.1 272.112L324.836 272.135L324.804 271.87L324.763 271.523C323.421 260.155 322.285 250.11 321.65 244.123L321.632 243.945L321.805 243.949C323.649 243.986 325.128 244.013 326.218 244.032C326.679 244.045 327.058 244.059 327.364 244.068C327.624 244.077 327.752 244.091 327.743 244.1ZM296.755 235.917C296.741 235.904 296.929 235.666 297.298 235.228C297.654 234.781 298.243 234.174 298.905 233.307C300.278 231.623 302.159 229.09 304.358 225.886C306.553 222.673 309.05 218.767 311.678 214.345C312.984 212.127 314.348 209.795 315.685 207.339C317.013 204.884 318.419 202.328 319.56 199.622C320.377 198.134 319.419 196.555 318.588 195.236C317.689 193.899 316.625 192.69 315.53 191.59L314.855 190.915L315.777 191.143C318.25 191.75 320.632 192.334 322.905 192.891L322.645 192.982C323.736 191.499 324.119 189.66 324.265 187.953C324.416 186.232 324.306 184.571 324.146 183.019C323.795 179.911 323.152 177.223 322.558 175.028C321.956 172.833 321.381 171.117 320.956 169.963C320.541 168.799 320.24 168.21 320.24 168.21C320.286 168.174 320.642 168.758 321.107 169.903C321.582 171.049 322.202 172.751 322.85 174.946C323.489 177.141 324.174 179.834 324.562 182.974C324.74 184.544 324.872 186.223 324.731 187.994C324.589 189.742 324.224 191.663 323.047 193.288L322.951 193.42L322.787 193.379C320.509 192.831 318.127 192.256 315.653 191.658L315.9 191.207C317.032 192.334 318.104 193.548 319.04 194.935C319.496 195.629 319.93 196.368 320.208 197.199C320.276 197.409 320.345 197.614 320.372 197.842C320.422 198.061 320.441 198.29 320.418 198.527C320.436 198.769 320.345 198.974 320.286 199.193C320.222 199.412 320.158 199.631 320.071 199.818C318.903 202.593 317.497 205.126 316.155 207.595C314.805 210.055 313.431 212.387 312.112 214.6C309.456 219.018 306.923 222.911 304.678 226.101C302.432 229.286 300.502 231.792 299.069 233.439C298.38 234.288 297.764 234.872 297.38 235.301C296.983 235.716 296.769 235.926 296.755 235.917Z" fill="#1A2E35"/>
<path d="M357.708 267.635C357.708 267.635 335.816 195.465 333.653 190.413C331.49 185.361 324.754 169.242 315.608 164.911L309.593 162.264C309.593 162.264 312.961 177.42 308.151 187.282C303.341 197.144 297.326 228.182 296.842 238.765C296.363 249.348 298.047 315.75 298.047 315.75L335.574 312.861L335.095 276.776L357.708 267.635Z" fill="#E87979"/>
<path d="M335.113 278.027C335.095 278.027 335.072 277.803 335.049 277.374C335.031 276.89 335.004 276.27 334.976 275.507C334.944 273.887 334.83 271.542 334.707 268.648C334.419 262.857 333.794 254.875 332.872 246.076C331.95 237.277 330.933 229.327 330.244 223.568C329.897 220.688 329.637 218.356 329.486 216.741C329.404 215.933 329.372 215.303 329.34 214.879C329.313 214.454 329.313 214.226 329.331 214.226C329.349 214.226 329.39 214.445 329.45 214.869C329.513 215.349 329.596 215.965 329.696 216.718C329.924 218.393 330.239 220.702 330.627 223.522C331.412 229.268 332.494 237.213 333.415 246.021C334.342 254.829 334.903 262.829 335.095 268.635C335.168 271.537 335.227 273.883 335.195 275.507C335.182 276.27 335.172 276.89 335.168 277.374C335.145 277.803 335.131 278.027 335.113 278.027ZM327.743 244.1C327.734 244.109 327.588 244.123 327.318 244.132C327.003 244.141 326.615 244.155 326.141 244.168C325.068 244.187 323.617 244.219 321.805 244.251L321.961 244.077C322.736 250.051 323.969 260.082 325.306 271.45L325.347 271.797L325.055 271.555C327.003 271.391 328.911 271.231 330.746 271.076L330.499 271.341C330.513 267.453 330.212 263.797 329.879 260.511C329.541 257.225 329.162 254.309 328.829 251.881C328.487 249.503 328.208 247.573 328.007 246.167C327.916 245.542 327.843 245.036 327.788 244.629C327.743 244.283 327.738 244.123 327.743 244.1C327.747 244.077 327.811 244.278 327.889 244.62C327.971 245.022 328.076 245.524 328.199 246.145C328.455 247.473 328.801 249.412 329.18 251.84C329.559 254.268 329.979 257.184 330.349 260.475C330.714 263.765 331.038 267.43 331.038 271.359V271.601L330.791 271.624C328.952 271.783 327.049 271.943 325.1 272.112L324.836 272.135L324.804 271.87L324.763 271.523C323.421 260.155 322.285 250.11 321.65 244.123L321.632 243.945L321.805 243.949C323.649 243.986 325.128 244.013 326.218 244.032C326.679 244.045 327.058 244.059 327.364 244.068C327.624 244.077 327.752 244.091 327.743 244.1ZM296.755 235.917C296.741 235.904 296.929 235.666 297.298 235.228C297.654 234.781 298.243 234.174 298.905 233.307C300.278 231.623 302.159 229.09 304.358 225.886C306.553 222.673 309.05 218.767 311.678 214.345C312.984 212.127 314.348 209.795 315.685 207.339C317.013 204.884 318.419 202.328 319.56 199.622C320.377 198.134 319.419 196.555 318.588 195.236C317.689 193.899 316.625 192.69 315.53 191.59L314.855 190.915L315.777 191.143C318.25 191.75 320.632 192.334 322.905 192.891L322.645 192.982C323.736 191.499 324.119 189.66 324.265 187.953C324.416 186.232 324.306 184.571 324.146 183.019C323.795 179.911 323.152 177.223 322.558 175.028C321.956 172.833 321.381 171.117 320.956 169.963C320.541 168.799 320.24 168.21 320.24 168.21C320.286 168.174 320.642 168.758 321.107 169.903C321.582 171.049 322.202 172.751 322.85 174.946C323.489 177.141 324.174 179.834 324.562 182.974C324.74 184.544 324.872 186.223 324.731 187.994C324.589 189.742 324.224 191.663 323.047 193.288L322.951 193.42L322.787 193.379C320.509 192.831 318.127 192.256 315.653 191.658L315.9 191.207C317.032 192.334 318.104 193.548 319.04 194.935C319.496 195.629 319.93 196.368 320.208 197.199C320.276 197.409 320.345 197.614 320.372 197.842C320.422 198.061 320.441 198.29 320.418 198.527C320.436 198.769 320.345 198.974 320.286 199.193C320.222 199.412 320.158 199.631 320.071 199.818C318.903 202.593 317.497 205.126 316.155 207.595C314.805 210.055 313.431 212.387 312.112 214.6C309.456 219.018 306.923 222.911 304.678 226.101C302.432 229.286 300.502 231.792 299.069 233.439C298.38 234.288 297.764 234.872 297.38 235.301C296.983 235.716 296.769 235.926 296.755 235.917Z" fill="#1A2E35"/>
<path d="M233.708 267.635C233.708 267.635 255.6 195.465 257.763 190.413C259.926 185.361 266.662 169.242 275.808 164.911L281.823 162.264C281.823 162.264 278.455 177.42 283.265 187.282C288.075 197.144 294.09 228.182 294.574 238.765C295.053 249.348 293.369 315.75 293.369 315.75L255.842 312.861L256.321 276.776L233.708 267.635Z" fill="#E87979"/>
<path d="M256.307 278.027C256.289 278.027 256.271 277.803 256.261 277.374C256.252 276.89 256.243 276.27 256.234 275.507C256.202 273.883 256.257 271.537 256.334 268.635C256.522 262.834 257.087 254.829 258.014 246.021C258.936 237.213 260.017 229.268 260.802 223.522C261.19 220.702 261.505 218.393 261.733 216.718C261.834 215.96 261.916 215.349 261.98 214.869C262.039 214.445 262.08 214.226 262.098 214.226C262.117 214.226 262.112 214.454 262.089 214.879C262.062 215.303 262.025 215.937 261.943 216.741C261.793 218.356 261.532 220.693 261.186 223.568C260.497 229.327 259.479 237.273 258.557 246.076C257.631 254.875 257.01 262.857 256.722 268.648C256.599 271.542 256.485 273.887 256.453 275.507C256.421 276.27 256.398 276.89 256.38 277.374C256.348 277.803 256.325 278.027 256.307 278.027ZM263.677 244.1C263.668 244.091 263.796 244.077 264.052 244.068C264.357 244.059 264.736 244.045 265.197 244.032C266.288 244.013 267.771 243.981 269.61 243.949L269.784 243.945L269.765 244.123C269.131 250.11 267.995 260.155 266.653 271.523L266.612 271.87L266.58 272.135L266.315 272.112C264.367 271.943 262.459 271.779 260.624 271.624L260.378 271.601V271.359C260.373 267.43 260.702 263.765 261.067 260.475C261.437 257.184 261.857 254.268 262.235 251.84C262.619 249.412 262.961 247.477 263.217 246.145C263.344 245.524 263.445 245.022 263.527 244.62C263.604 244.278 263.668 244.077 263.677 244.1C263.682 244.123 263.677 244.283 263.627 244.639C263.568 245.04 263.495 245.551 263.408 246.177C263.207 247.582 262.929 249.513 262.587 251.89C262.254 254.323 261.875 257.239 261.537 260.52C261.204 263.802 260.903 267.462 260.916 271.35L260.67 271.085C262.509 271.24 264.412 271.4 266.361 271.564L266.069 271.806L266.11 271.459C267.452 260.091 268.679 250.056 269.455 244.086L269.61 244.26C267.803 244.223 266.347 244.196 265.275 244.178C264.8 244.164 264.417 244.15 264.097 244.141C263.828 244.123 263.687 244.109 263.677 244.1ZM294.66 235.917C294.647 235.931 294.432 235.716 294.035 235.301C293.652 234.877 293.036 234.288 292.347 233.439C290.918 231.792 288.988 229.286 286.738 226.101C284.497 222.911 281.964 219.018 279.304 214.6C277.985 212.387 276.606 210.055 275.26 207.595C273.918 205.131 272.513 202.593 271.344 199.818C271.253 199.627 271.189 199.412 271.13 199.193C271.071 198.974 270.979 198.764 270.998 198.527C270.979 198.29 270.993 198.061 271.048 197.842C271.075 197.614 271.144 197.409 271.212 197.199C271.49 196.368 271.919 195.633 272.38 194.935C273.316 193.552 274.388 192.334 275.52 191.207L275.767 191.658C273.293 192.256 270.906 192.831 268.634 193.379L268.469 193.42L268.373 193.288C267.196 191.663 266.831 189.746 266.689 187.994C266.548 186.223 266.676 184.544 266.858 182.974C267.246 179.834 267.931 177.146 268.57 174.946C269.218 172.751 269.838 171.049 270.313 169.903C270.779 168.758 271.135 168.174 271.18 168.21C271.18 168.21 270.879 168.799 270.464 169.963C270.039 171.122 269.464 172.833 268.862 175.028C268.269 177.223 267.625 179.911 267.274 183.019C267.114 184.571 267 186.232 267.155 187.953C267.301 189.655 267.684 191.494 268.775 192.982L268.515 192.891C270.788 192.334 273.17 191.75 275.643 191.143L276.565 190.915L275.89 191.59C274.795 192.685 273.731 193.899 272.832 195.236C272.002 196.555 271.043 198.134 271.86 199.622C273.001 202.328 274.407 204.884 275.735 207.339C277.072 209.795 278.436 212.127 279.742 214.345C282.37 218.767 284.867 222.673 287.062 225.886C289.262 229.095 291.142 231.623 292.516 233.307C293.177 234.174 293.766 234.781 294.122 235.228C294.487 235.666 294.674 235.904 294.66 235.917Z" fill="#1A2E35"/>
<path d="M384.652 160.63C384.652 160.63 396.235 154.364 409.305 160.63L415.042 175.019L416.671 339.915L399.055 341.271H394.907L381.763 337.054L373.813 197.217L375.215 174.754L384.652 160.63Z" fill="#FF735D"/>
<path opacity="0.3" d="M384.652 160.63C384.652 160.63 396.235 154.364 409.305 160.63L415.042 175.019L416.671 339.915L399.055 341.271H394.907L381.763 337.054L373.813 197.217L375.215 174.754L384.652 160.63Z" fill="black"/>
<path d="M384.652 160.63C384.652 160.63 396.235 154.364 409.305 160.63L415.042 175.019L416.671 339.915L399.055 341.271H394.907L381.763 337.054L373.813 197.217L375.215 174.754L384.652 160.63Z" fill="#E1E1E1"/>
<path d="M384.652 160.63C384.652 160.63 396.235 154.364 409.305 160.63L415.042 175.019L416.671 339.915L399.055 341.271H394.907L381.763 337.054L373.813 197.217L375.215 174.754L384.652 160.63Z" fill="#DDA4A4"/>
<path d="M420.523 171.131H373.512L373.572 170.615C373.59 170.455 374.028 166.731 375.831 165.522C377.501 164.404 383.813 162.327 384.132 162.218L398.302 157.321L398.462 157.385C400.438 158.179 417.817 165.203 419.209 166.549C421.089 168.365 420.619 170.665 420.601 170.766L420.523 171.131ZM374.571 170.2H419.734C419.766 169.579 419.679 168.297 418.565 167.215C417.616 166.298 405.979 161.415 398.28 158.311L384.429 163.099C384.365 163.122 377.921 165.239 376.351 166.293C375.324 166.978 374.776 169.022 374.571 170.2Z" fill="#1A2E35"/>
<path d="M398.699 158.047L397.892 157.59C397.91 157.563 399.562 154.597 399.274 151.804C399.206 151.133 398.959 150.658 398.535 150.352C397.627 149.709 396.176 150.047 396.162 150.047L395.943 149.143C396.02 149.125 397.809 148.7 399.069 149.586C399.722 150.047 400.105 150.758 400.201 151.703C400.516 154.797 398.772 157.914 398.699 158.047Z" fill="#1A2E35"/>
<path d="M452.017 254.172C452.017 254.172 432.58 190.102 430.659 185.616C428.738 181.13 422.755 166.823 414.64 162.976L409.301 160.625C409.301 160.625 412.29 174.079 408.019 182.837C403.747 191.595 398.407 219.146 397.983 228.542C397.554 237.939 399.051 341.266 399.051 341.266L432.366 338.701L431.937 262.286L452.017 254.172Z" fill="#FFCCCC"/>
<path d="M431.96 263.4C431.941 263.4 431.923 263.199 431.905 262.82C431.887 262.391 431.868 261.839 431.841 261.164C431.814 259.726 431.709 257.645 431.599 255.076C431.344 249.937 430.791 242.85 429.97 235.037C429.153 227.223 428.249 220.168 427.638 215.057C427.327 212.501 427.099 210.429 426.962 208.996C426.889 208.28 426.857 207.718 426.835 207.339C426.812 206.961 426.807 206.76 426.825 206.76C426.844 206.76 426.88 206.956 426.93 207.33C426.985 207.759 427.058 208.302 427.15 208.973C427.355 210.461 427.633 212.51 427.976 215.016C428.674 220.118 429.632 227.169 430.449 234.991C431.271 242.809 431.773 249.914 431.937 255.067C432.005 257.641 432.051 259.726 432.024 261.168C432.014 261.848 432.005 262.396 431.996 262.83C431.987 263.199 431.973 263.4 431.96 263.4ZM425.415 233.28C425.406 233.289 425.278 233.298 425.037 233.311C424.758 233.321 424.411 233.33 423.991 233.343C423.042 233.362 421.751 233.384 420.144 233.416L420.281 233.261C420.97 238.564 422.061 247.473 423.252 257.563L423.289 257.873L423.028 257.659C424.758 257.513 426.451 257.371 428.08 257.234L427.861 257.467C427.875 254.017 427.606 250.768 427.314 247.856C427.013 244.94 426.679 242.352 426.383 240.194C426.077 238.081 425.831 236.369 425.653 235.123C425.57 234.566 425.507 234.115 425.456 233.759C425.415 233.444 425.411 233.302 425.415 233.28C425.42 233.257 425.479 233.439 425.543 233.74C425.616 234.096 425.707 234.544 425.821 235.091C426.05 236.273 426.355 237.989 426.693 240.148C427.031 242.302 427.405 244.89 427.729 247.81C428.053 250.731 428.341 253.985 428.341 257.472V257.686L428.122 257.704C426.492 257.846 424.799 257.992 423.07 258.138L422.837 258.156L422.809 257.924L422.773 257.613C421.582 247.518 420.573 238.605 420.012 233.284L419.994 233.129L420.149 233.133C421.783 233.165 423.102 233.188 424.069 233.206C424.48 233.22 424.813 233.229 425.087 233.238C425.31 233.261 425.424 233.27 425.415 233.28ZM397.91 226.014C397.896 226 398.065 225.79 398.394 225.403C398.713 225.005 399.233 224.467 399.822 223.696C401.041 222.199 402.711 219.953 404.664 217.106C406.613 214.253 408.826 210.785 411.163 206.86C412.322 204.893 413.531 202.821 414.723 200.64C415.905 198.458 417.15 196.19 418.164 193.79C418.889 192.471 418.04 191.07 417.301 189.897C416.502 188.71 415.558 187.633 414.586 186.661L413.988 186.059L414.805 186.26C417 186.798 419.113 187.318 421.13 187.811L420.902 187.893C421.869 186.575 422.212 184.945 422.339 183.43C422.476 181.901 422.376 180.427 422.234 179.049C421.924 176.292 421.354 173.906 420.824 171.957C420.29 170.008 419.779 168.489 419.4 167.457C419.031 166.426 418.761 165.901 418.761 165.901C418.803 165.869 419.117 166.389 419.533 167.407C419.953 168.425 420.505 169.935 421.08 171.884C421.646 173.833 422.257 176.224 422.599 179.008C422.759 180.4 422.873 181.892 422.75 183.467C422.627 185.018 422.298 186.725 421.253 188.167L421.167 188.286L421.02 188.249C418.999 187.761 416.886 187.255 414.686 186.725L414.905 186.324C415.909 187.323 416.863 188.405 417.693 189.632C418.1 190.248 418.483 190.901 418.729 191.64C418.789 191.823 418.853 192.01 418.876 192.211C418.921 192.407 418.935 192.608 418.917 192.818C418.93 193.032 418.853 193.215 418.798 193.411C418.743 193.607 418.684 193.799 418.606 193.968C417.57 196.428 416.32 198.682 415.129 200.873C413.933 203.059 412.71 205.126 411.537 207.093C409.178 211.013 406.928 214.472 404.938 217.307C402.944 220.136 401.228 222.359 399.959 223.824C399.347 224.577 398.8 225.097 398.462 225.476C398.111 225.836 397.919 226.028 397.91 226.014Z" fill="#1A2E35"/>
<path d="M431.96 263.4C431.941 263.4 431.923 263.199 431.905 262.82C431.887 262.391 431.868 261.839 431.841 261.164C431.814 259.726 431.709 257.645 431.599 255.076C431.344 249.937 430.791 242.85 429.97 235.037C429.153 227.223 428.249 220.168 427.638 215.057C427.327 212.501 427.099 210.429 426.962 208.996C426.889 208.28 426.857 207.718 426.835 207.339C426.812 206.961 426.807 206.76 426.825 206.76C426.844 206.76 426.88 206.956 426.93 207.33C426.985 207.759 427.058 208.302 427.15 208.973C427.355 210.461 427.633 212.51 427.976 215.016C428.674 220.118 429.632 227.169 430.449 234.991C431.271 242.809 431.773 249.914 431.937 255.067C432.005 257.641 432.051 259.726 432.024 261.168C432.014 261.848 432.005 262.396 431.996 262.83C431.987 263.199 431.973 263.4 431.96 263.4ZM425.415 233.28C425.406 233.289 425.278 233.298 425.037 233.311C424.758 233.321 424.411 233.33 423.991 233.343C423.042 233.362 421.751 233.384 420.144 233.416L420.281 233.261C420.97 238.564 422.061 247.473 423.252 257.563L423.289 257.873L423.028 257.659C424.758 257.513 426.451 257.371 428.08 257.234L427.861 257.467C427.875 254.017 427.606 250.768 427.314 247.856C427.013 244.94 426.679 242.352 426.383 240.194C426.077 238.081 425.831 236.369 425.653 235.123C425.57 234.566 425.507 234.115 425.456 233.759C425.415 233.444 425.411 233.302 425.415 233.28C425.42 233.257 425.479 233.439 425.543 233.74C425.616 234.096 425.707 234.544 425.821 235.091C426.05 236.273 426.355 237.989 426.693 240.148C427.031 242.302 427.405 244.89 427.729 247.81C428.053 250.731 428.341 253.985 428.341 257.472V257.686L428.122 257.704C426.492 257.846 424.799 257.992 423.07 258.138L422.837 258.156L422.809 257.924L422.773 257.613C421.582 247.518 420.573 238.605 420.012 233.284L419.994 233.129L420.149 233.133C421.783 233.165 423.102 233.188 424.069 233.206C424.48 233.22 424.813 233.229 425.087 233.238C425.31 233.261 425.424 233.27 425.415 233.28ZM397.91 226.014C397.896 226 398.065 225.79 398.394 225.403C398.713 225.005 399.233 224.467 399.822 223.696C401.041 222.199 402.711 219.953 404.664 217.106C406.613 214.253 408.826 210.785 411.163 206.86C412.322 204.893 413.531 202.821 414.723 200.64C415.905 198.458 417.15 196.19 418.164 193.79C418.889 192.471 418.04 191.07 417.301 189.897C416.502 188.71 415.558 187.633 414.586 186.661L413.988 186.059L414.805 186.26C417 186.798 419.113 187.318 421.13 187.811L420.902 187.893C421.869 186.575 422.212 184.945 422.339 183.43C422.476 181.901 422.376 180.427 422.234 179.049C421.924 176.292 421.354 173.906 420.824 171.957C420.29 170.008 419.779 168.489 419.4 167.457C419.031 166.426 418.761 165.901 418.761 165.901C418.803 165.869 419.117 166.389 419.533 167.407C419.953 168.425 420.505 169.935 421.08 171.884C421.646 173.833 422.257 176.224 422.599 179.008C422.759 180.4 422.873 181.892 422.75 183.467C422.627 185.018 422.298 186.725 421.253 188.167L421.167 188.286L421.02 188.249C418.999 187.761 416.886 187.255 414.686 186.725L414.905 186.324C415.909 187.323 416.863 188.405 417.693 189.632C418.1 190.248 418.483 190.901 418.729 191.64C418.789 191.823 418.853 192.01 418.876 192.211C418.921 192.407 418.935 192.608 418.917 192.818C418.93 193.032 418.853 193.215 418.798 193.411C418.743 193.607 418.684 193.799 418.606 193.968C417.57 196.428 416.32 198.682 415.129 200.873C413.933 203.059 412.71 205.126 411.537 207.093C409.178 211.013 406.928 214.472 404.938 217.307C402.944 220.136 401.228 222.359 399.959 223.824C399.347 224.577 398.8 225.097 398.462 225.476C398.111 225.836 397.919 226.028 397.91 226.014Z" fill="#1A2E35"/>
<path d="M341.936 254.172C341.936 254.172 361.373 190.102 363.294 185.616C365.215 181.13 371.198 166.823 379.313 162.976L384.652 160.625C384.652 160.625 381.663 174.079 385.935 182.837C390.206 191.595 395.546 219.146 395.975 228.542C396.404 237.939 394.907 341.266 394.907 341.266L361.592 338.701L362.021 262.286L341.936 254.172Z" fill="#FFCCCC"/>
<path d="M361.998 263.4C361.98 263.4 361.966 263.199 361.957 262.82C361.952 262.391 361.943 261.839 361.93 261.159C361.902 259.717 361.952 257.632 362.016 255.058C362.185 249.905 362.683 242.799 363.504 234.982C364.321 227.16 365.279 220.109 365.978 215.006C366.32 212.501 366.598 210.456 366.804 208.964C366.895 208.293 366.968 207.75 367.023 207.321C367.077 206.947 367.114 206.751 367.128 206.751C367.146 206.751 367.141 206.951 367.118 207.33C367.091 207.709 367.064 208.27 366.991 208.987C366.858 210.42 366.626 212.492 366.315 215.048C365.704 220.159 364.8 227.214 363.983 235.027C363.162 242.836 362.609 249.928 362.354 255.067C362.244 257.636 362.144 259.717 362.112 261.155C362.085 261.83 362.062 262.382 362.048 262.811C362.034 263.199 362.016 263.4 361.998 263.4ZM368.538 233.28C368.529 233.27 368.643 233.261 368.871 233.248C369.145 233.238 369.478 233.229 369.889 233.216C370.856 233.197 372.17 233.175 373.809 233.143L373.964 233.138L373.946 233.293C373.384 238.61 372.371 247.527 371.185 257.622L371.148 257.933L371.121 258.165L370.888 258.147C369.158 257.997 367.465 257.855 365.836 257.714L365.617 257.695V257.481C365.612 253.994 365.905 250.74 366.229 247.82C366.557 244.899 366.931 242.311 367.264 240.157C367.602 238.003 367.908 236.282 368.136 235.1C368.25 234.548 368.342 234.101 368.415 233.75C368.478 233.439 368.533 233.261 368.538 233.28C368.542 233.302 368.538 233.444 368.497 233.759C368.447 234.115 368.378 234.566 368.3 235.123C368.122 236.369 367.876 238.085 367.57 240.194C367.274 242.352 366.94 244.94 366.639 247.856C366.343 250.772 366.078 254.017 366.092 257.467L365.873 257.234C367.502 257.371 369.195 257.513 370.925 257.659L370.664 257.873L370.701 257.563C371.892 247.468 372.983 238.564 373.672 233.261L373.809 233.416C372.202 233.384 370.911 233.362 369.962 233.343C369.542 233.33 369.199 233.321 368.917 233.311C368.675 233.298 368.547 233.289 368.538 233.28ZM396.048 226.014C396.034 226.028 395.847 225.836 395.496 225.471C395.153 225.092 394.606 224.572 393.994 223.819C392.725 222.354 391.009 220.131 389.015 217.302C387.025 214.468 384.775 211.013 382.416 207.088C381.243 205.121 380.025 203.054 378.824 200.868C377.633 198.677 376.387 196.428 375.347 193.963C375.269 193.794 375.21 193.603 375.155 193.406C375.105 193.21 375.023 193.028 375.036 192.813C375.018 192.603 375.036 192.402 375.078 192.206C375.1 192.005 375.16 191.818 375.224 191.636C375.47 190.896 375.853 190.244 376.26 189.628C377.09 188.4 378.044 187.318 379.048 186.319L379.267 186.721C377.072 187.25 374.954 187.761 372.933 188.245L372.787 188.281L372.7 188.163C371.655 186.721 371.331 185.018 371.203 183.462C371.075 181.892 371.194 180.395 371.354 179.003C371.696 176.219 372.307 173.828 372.873 171.879C373.448 169.931 374.001 168.42 374.42 167.402C374.831 166.385 375.151 165.869 375.192 165.896C375.192 165.896 374.927 166.421 374.553 167.453C374.174 168.479 373.667 169.999 373.129 171.952C372.604 173.901 372.029 176.288 371.719 179.044C371.577 180.423 371.477 181.897 371.614 183.426C371.746 184.941 372.084 186.57 373.051 187.889L372.823 187.807C374.84 187.309 376.953 186.794 379.148 186.255L379.965 186.054L379.367 186.657C378.395 187.629 377.451 188.706 376.652 189.892C375.913 191.065 375.064 192.466 375.79 193.785C376.803 196.186 378.049 198.454 379.231 200.635C380.417 202.817 381.631 204.884 382.79 206.856C385.122 210.78 387.34 214.249 389.289 217.101C391.242 219.949 392.908 222.194 394.131 223.691C394.715 224.458 395.24 224.996 395.559 225.398C395.893 225.79 396.062 226.005 396.048 226.014Z" fill="#1A2E35"/>
<path d="M208.228 183.695C227.328 185.84 237.29 193.142 245.838 192.087C254.386 191.033 278.605 176.963 278.605 176.963L287.272 183.873C287.272 183.873 266.575 205.961 241.772 208.503C227.766 209.936 212.701 209.863 212.701 209.863" fill="#F2B3C1"/>
<path d="M208.274 183.699C227.638 186.588 237.801 189.924 246.349 188.87C254.897 187.816 265.79 183.453 265.79 183.453L274.594 196.898C274.594 196.898 263.084 208.124 242.182 210.589C229.765 212.054 212.742 209.868 212.742 209.868" fill="#FFAE01"/>
<path d="M267.913 181.965L261.072 185.388L271.897 201.365L278.071 194.091L267.913 181.965Z" fill="#FFAE01"/>
<path d="M281.157 184.142C283.758 184.425 286.437 184.252 288.901 183.38C291.366 182.508 293.611 180.906 295.026 178.702C295.478 178.004 295.843 177.242 296.03 176.434C296.094 176.165 296.126 175.85 295.948 175.64C295.656 175.293 295.094 175.494 294.711 175.74C294.013 176.192 293.337 176.726 292.525 176.909C288.595 177.785 291.836 172.847 292.602 171.765C294.127 169.607 296.025 167.562 297.171 165.166C297.431 164.623 297.591 164.208 297.312 163.669C296.294 161.684 289.905 169.2 289.481 169.716C288.91 168.908 287.797 168.68 286.816 168.776C285.834 168.872 284.885 169.219 283.904 169.301C283.379 169.346 282.845 169.315 282.329 169.429C280.983 169.73 280.043 170.953 279.454 172.203C278.03 175.215 278.012 178.853 279.4 181.878" fill="#F2B3C1"/>
<path d="M203.861 410.534C199.521 416.544 199.726 426.48 202.469 427.484C204.089 428.077 236.989 429.145 237.468 427.223C239.837 417.74 212.669 412.209 212.669 412.209" fill="#1E1814"/>
<path d="M223.074 396.519L223.53 415.23C223.613 415.257 218.51 417.512 210.752 417.055C205.285 416.736 202.081 414.317 202.081 414.317V394.237" fill="#F2B3C1"/>
<path d="M222.161 256.413C234.082 312.629 224.9 408.699 224.9 408.699H200.256C200.256 408.699 198.512 298.91 194.323 294.292C190.133 289.673 185.118 275.859 193.378 258.257" fill="#6493D8"/>
<path d="M205.96 407.244C205.96 407.244 206.362 306.372 199.571 284.023" stroke="#00093D" stroke-width="0.93" stroke-miterlimit="10"/>
<path d="M199.608 408.64H225.488L225.812 405.861L199.343 405.692L199.608 408.64Z" fill="#EF9797"/>
<path d="M146.404 401.995C140.978 405.852 138.248 413.838 140.288 415.486C141.493 416.458 169.149 426.867 170.112 425.371C174.868 417.996 153.368 405.445 153.368 405.445" fill="#1E1814"/>
<path d="M173.476 390.956L163.468 412.715C163.468 412.715 159.429 412.82 152.337 408.841C147.677 406.226 146.404 401.995 146.404 401.995L155.189 379.359" fill="#F2B3C1"/>
<path d="M200.712 258.238C200.712 258.238 198.398 312.209 193.839 333.426C186.268 368.653 170.427 406.103 170.427 406.103L146.472 394.593C146.472 394.593 162.897 338.427 162.897 329.752C162.897 319.169 162.774 298.805 162.774 296.149C162.833 281.513 161.464 269.648 166.197 254.587" fill="#6493D8"/>
<path d="M145.491 396.519L169.679 407.928L171.961 404.277L146.404 392.868L145.491 396.519Z" fill="#EF9797"/>
<path d="M153.021 395.834C153.021 395.834 166.781 341.773 166.781 333.526C166.781 326.019 166.635 313.327 166.685 306.326C166.712 302.278 166.712 300.909 166.712 298.171C166.712 286.351 165.8 275.352 169.921 262.081M223.512 261.433C223.512 261.433 195.035 267.279 161.021 260.141" stroke="#00093D" stroke-width="0.93" stroke-miterlimit="10"/>
<path d="M192.657 270.688L192.995 264.742" stroke="#00093D" stroke-width="0.93" stroke-miterlimit="10"/>
<path d="M197.668 268.808C196.212 268.808 196.208 266.544 197.668 266.544C199.124 266.544 199.128 268.808 197.668 268.808Z" fill="black"/>
<path d="M199.571 263.487C199.571 263.487 200.137 285.885 199.096 296.934C197.627 309.977 195.92 320.533 195.92 320.533" stroke="#00093D" stroke-width="0.93" stroke-miterlimit="10"/>
<path d="M203.678 263.523C203.678 263.523 202.916 275.704 202.045 276.571C201.173 277.442 199.754 277.99 199.754 277.99" stroke="#00093D" stroke-width="0.93" stroke-miterlimit="10"/>
<path d="M170.048 201.087C170.048 201.087 168.383 234.79 175.392 249.832C186.774 253.132 214.65 253.004 220.062 251.502C225.475 250.001 228.021 201.087 228.021 201.087L212.003 184.005C212.003 184.005 207.466 183.503 205.399 183.503C195.309 182.7 191.47 183.248 191.47 183.248L170.048 201.087Z" fill="white"/>
<path d="M209.798 175.649L211.104 183.918C211.104 183.918 211.104 188.92 204.258 188.92C194.163 188.92 192.89 183.439 192.89 183.439L196.198 167.868M214.531 166.599C214.618 166.17 215.184 166.01 215.608 166.129C216.21 166.298 216.658 166.836 216.858 167.43C217.059 168.023 217.045 168.666 216.977 169.287C216.913 169.867 216.794 170.455 216.457 170.93C215.859 171.774 214.572 172.025 213.7 171.469" fill="#F2B3C1"/>
<path d="M210.752 181.39C210.752 181.39 210.296 181.386 209.671 181.44C205.276 181.847 202.537 180.934 200.712 178.652C197.517 174.545 201.168 169.068 201.168 169.068L209.657 175.092C209.584 176.092 210.296 176.397 210.296 177.283C210.296 179.565 210.752 180.477 210.752 181.39Z" fill="#F2B3C1"/>
<path d="M215.147 159.128C215.147 159.128 216.808 173.294 214.444 175.818C210.907 179.601 203.847 178.935 201.164 176.585C198.914 174.613 198.284 165.641 198.421 163.363C198.886 155.555 212.372 155.445 215.147 159.128Z" fill="#F2B3C1"/>
<path d="M195.486 154.975C196.933 153.127 199.083 151.982 201.232 151.041C203.779 149.928 206.526 149.02 209.292 149.294C211.053 149.472 212.733 150.12 214.325 150.882C214.882 151.146 215.425 151.489 215.836 151.959C216.197 152.374 216.402 153.241 217.041 153.291C218.369 153.392 217.84 154.852 217.666 155.669C217.493 156.486 217.146 157.275 216.498 157.828C215.909 158.33 215.138 158.576 214.376 158.718C212.623 159.042 210.825 158.877 209.05 158.813C206.407 158.713 203.756 158.823 201.132 159.137C201.323 161.953 201.05 164.801 200.324 167.526C199.703 167.142 198.832 166.786 198.325 167.306C198.175 167.462 198.092 167.672 198.01 167.872C197.631 168.822 197.193 169.748 196.696 170.647C196.413 171.163 195.975 171.738 195.391 171.669C193.816 171.478 193.912 169.114 193.752 167.977C193.492 166.143 193.314 164.294 193.31 162.442C193.305 159.799 193.857 157.052 195.486 154.975Z" fill="#011E3B"/>
<path d="M201.515 166.435C201.269 165.842 200.283 164.974 199.681 164.956C199.078 164.938 198.48 165.216 197.997 165.627C195.733 167.553 197.271 172.053 200.333 172.007C201.456 171.993 201.36 170.492 201.36 170.492" fill="#F2B3C1"/>
<path d="M207.179 165.513C207.206 165.873 207.01 166.179 206.736 166.202C206.462 166.225 206.22 165.951 206.193 165.591C206.166 165.23 206.362 164.924 206.636 164.901C206.909 164.879 207.151 165.152 207.179 165.513ZM214.809 164.856C214.837 165.216 214.64 165.522 214.367 165.545C214.093 165.568 213.851 165.294 213.823 164.933C213.796 164.573 213.992 164.267 214.266 164.244C214.54 164.221 214.777 164.495 214.809 164.856Z" fill="#011E3B"/>
<path d="M214.006 162.61C212.176 162.127 211.076 163.601 211.277 164.997C211.478 166.394 212.641 170.113 212.975 170.875L210.35 170.218" stroke="black" stroke-width="0.604" stroke-miterlimit="10" stroke-linecap="round" stroke-linejoin="round"/>
<path d="M191.475 183.252C191.475 183.252 195.874 198.732 192.844 232.746C191.082 252.488 184.743 274.22 184.743 274.22C184.743 274.22 163.166 272.254 163.166 269.36C163.166 266.467 168.332 250.229 168.332 240.102C168.332 229.975 169.692 192.964 169.692 192.964C169.692 192.964 179.559 184.548 191.475 183.252Z" fill="#FFAE01"/>
<path d="M184.251 185.388C184.251 185.388 186.514 207.015 187.979 208.444C188.422 208.873 191.708 209.21 191.708 210.109C191.708 211.013 189.189 211.182 189.189 213.519C189.189 215.855 190.471 226.32 192.201 233.544" stroke="#00093D" stroke-width="0.851" stroke-miterlimit="10"/>
<path d="M212.003 184.005C212.003 184.005 213.796 271.382 214.996 274.221C220.267 275.329 230.006 272.422 230.006 272.422C230.006 272.422 227.492 243.831 228.021 235.434C228.847 222.299 229.545 207.034 229.545 207.034L229.066 190.157C229.062 190.157 222.7 186.15 212.003 184.005Z" fill="#FFAE01"/>
<path d="M218.04 184.626C218.04 184.626 219.565 204.359 217.219 208.448C216.913 208.982 213.527 209.379 213.568 210.278C213.609 211.182 216.128 211.237 216.233 213.573C216.338 215.91 214.987 226.224 213.568 234.042" stroke="#00093D" stroke-width="0.851" stroke-miterlimit="10"/>
<path d="M229.221 213.742L229.39 200.736" stroke="#00093D" stroke-width="0.851" stroke-miterlimit="10"/>
<path d="M183.196 304.008C183.196 304.008 180.805 286.168 170.121 286.99C161.208 287.674 159.442 304.163 159.442 304.163" stroke="#34383B" stroke-width="1.648" stroke-miterlimit="10"/>
<path d="M190.503 301.712L192.995 355.5L145.153 353.351L151.606 299.969L190.503 301.712Z" fill="#4B7DEA"/>
<path d="M145.153 353.351L151.606 299.969L139.467 348.582L145.153 353.351Z" fill="#1E1814"/>
<path d="M176.643 306.833C176.643 306.833 181.576 289.208 171.052 287.122C162.322 285.388 157.037 300.626 157.037 300.626" stroke="#34383B" stroke-width="1.648" stroke-miterlimit="10"/>
<path d="M184.251 304.56L176.533 351.635L135.465 340.988L150.858 295.907L184.251 304.56Z" fill="#E86262"/>
<path d="M135.465 340.988L150.858 295.907L131.412 335.812L135.465 340.988Z" fill="#1E1814"/>
<path d="M149.512 231.591C146.851 248.837 164.955 282.809 164.955 282.809L175.548 279.145C175.548 279.145 166.151 242.11 168.844 236.091" fill="#F2B3C1"/>
<path d="M185.214 208.768C185.214 208.768 171.367 228.424 170.404 236.638C169.241 246.533 172.453 261.698 172.453 261.698C166.352 264.491 157.813 267.822 157.813 267.822C157.813 267.822 146.427 249.189 149.142 230.4C152.15 209.589 166.872 190.682 181.946 185.744" fill="#FFAE01"/>
<path d="M172.453 261.693C172.453 261.693 168.862 244.415 170.404 236.634C171.951 228.857 182.754 212.387 182.754 212.387" stroke="#00093D" stroke-width="0.851" stroke-miterlimit="10"/>
<path d="M172.796 272.559C176.675 275.211 179.586 280.555 179.787 285.233C179.888 287.519 179.203 290.221 177.195 291.59C176.255 292.234 174.74 292.85 173.622 293.005C173.01 293.092 169.77 292.033 169.816 292.005C167.794 293.238 165.799 291.992 164.499 290.011C163.198 288.03 162.509 285.657 163.796 283.672C163.992 283.371 164.713 282.787 164.713 282.787C164.713 282.787 163.572 275.156 169.428 272.299" fill="#F2B3C1"/>
<path d="M171.116 256.449L173.635 263.569L159.132 270.533L154.619 261.889L171.116 256.449Z" fill="#FFAE01"/>
<path d="M208.835 164.358C208.749 164.358 208.676 164.294 208.666 164.208C208.662 164.158 208.498 163.017 207.293 162.725C206.074 162.428 205.34 163.318 205.312 163.359C205.253 163.432 205.143 163.446 205.07 163.386C204.997 163.327 204.984 163.222 205.043 163.144C205.079 163.099 205.942 162.045 207.375 162.391C208.817 162.743 209.004 164.148 209.009 164.162C209.022 164.258 208.954 164.34 208.863 164.354C208.849 164.358 208.84 164.358 208.835 164.358Z" fill="#1E1814"/>
<path d="M207.991 171.779C208.365 173.285 209.903 173.212 210.638 173.061" stroke="black" stroke-width="0.618" stroke-miterlimit="10" stroke-linecap="round" stroke-linejoin="round"/>
<path d="M210.67 164.203C210.237 162.464 208.352 161.369 206.467 161.748C204.591 162.136 203.414 163.856 203.847 165.59C204.222 167.06 205.623 168.073 207.183 168.119C207.471 168.132 207.758 168.11 208.051 168.041C209.598 167.731 210.666 166.517 210.757 165.125C210.775 164.824 210.748 164.513 210.67 164.203ZM207.95 167.626C206.321 167.959 204.687 167.005 204.308 165.499C203.929 163.993 204.947 162.505 206.581 162.172C206.832 162.117 207.083 162.099 207.334 162.108C208.685 162.145 209.903 163.026 210.223 164.299C210.597 165.805 209.579 167.293 207.95 167.626Z" fill="white"/>
<path d="M207.95 167.626C206.321 167.959 204.687 167.005 204.308 165.499C203.929 163.993 204.947 162.505 206.581 162.172C206.832 162.118 207.083 162.099 207.334 162.108C208.685 162.145 209.903 163.026 210.223 164.299C210.597 165.805 209.579 167.293 207.95 167.626Z" fill="#1A2E35"/>
<path d="M217.675 164.039C217.593 163.195 217.242 162.419 216.708 161.848C216.156 161.264 215.466 160.967 214.75 161.027C214.043 161.086 213.422 161.474 212.993 162.145C212.582 162.779 212.4 163.601 212.491 164.45C212.664 166.12 213.846 167.421 215.193 167.462C215.266 167.466 215.343 167.466 215.421 167.457C216.849 167.343 217.862 165.81 217.675 164.039ZM215.371 167.024C214.193 167.115 213.107 165.937 212.947 164.409C212.87 163.651 213.029 162.925 213.39 162.364C213.741 161.825 214.239 161.501 214.796 161.46C214.85 161.451 214.91 161.456 214.969 161.451C215.466 161.469 215.95 161.702 216.352 162.131C216.826 162.629 217.128 163.322 217.21 164.075C217.37 165.609 216.544 166.932 215.371 167.024Z" fill="white"/>
<path d="M215.371 167.024C214.193 167.115 213.107 165.937 212.947 164.409C212.87 163.651 213.029 162.925 213.39 162.364C213.741 161.825 214.239 161.501 214.796 161.46C214.85 161.451 214.91 161.456 214.969 161.451C215.466 161.469 215.95 161.702 216.352 162.131C216.826 162.629 217.128 163.322 217.21 164.075C217.37 165.609 216.543 166.932 215.371 167.024Z" fill="#1A2E35"/>
<path d="M210.597 164.586L210.264 164.281C210.752 163.829 211.916 163.185 212.856 163.957L212.546 164.276C211.701 163.582 210.643 164.545 210.597 164.586ZM195.144 166.626L194.711 166.462C194.793 166.275 195.537 164.641 196.559 164.404C197.517 164.185 203.824 164.235 204.089 164.24V164.669C202.282 164.65 197.417 164.65 196.678 164.819C196.002 164.974 195.34 166.175 195.144 166.626Z" fill="white"/>
<path d="M198.841 169.616C198.809 169.616 198.782 169.593 198.782 169.561C198.777 169.511 198.667 168.292 199.338 168.128C199.462 168.101 199.58 168.119 199.694 168.192C199.945 168.347 200.123 168.726 200.233 169.032C200.192 168 200.014 166.325 199.48 166.271C198.722 166.188 198.467 167.179 198.467 167.188C198.458 167.22 198.426 167.243 198.394 167.233C198.362 167.224 198.339 167.192 198.348 167.16C198.353 167.151 198.635 166.061 199.493 166.152C200.342 166.243 200.365 169.159 200.365 169.492C200.365 169.524 200.342 169.552 200.31 169.552C200.278 169.556 200.251 169.534 200.242 169.506C200.242 169.497 200.027 168.552 199.626 168.301C199.539 168.247 199.457 168.233 199.366 168.256C198.795 168.393 198.9 169.543 198.9 169.556C198.905 169.588 198.877 169.62 198.845 169.625C198.845 169.616 198.845 169.616 198.841 169.616Z" fill="black" stroke="black" stroke-width="0.082" stroke-miterlimit="10"/>
</svg>
