<svg width="500" height="500" viewBox="0 0 500 500" fill="none" xmlns="http://www.w3.org/2000/svg">
<g clip-path="url(#clip0_805_3085)">
<path opacity="0.18" d="M292.997 493.752C298.072 495.98 303.683 496.307 309.16 496.583C355.382 498.956 401.637 500.092 447.923 499.992C452.55 499.992 457.279 499.941 461.615 498.233C465.951 496.524 469.877 492.772 470.641 487.915C441.659 485.519 412.473 485.754 383.593 484.615C368.453 484.02 352.731 486.039 337.669 487.571C330.036 488.353 322.416 489.269 314.81 490.318C310.025 490.988 297.254 495.62 292.997 493.752Z" fill="#41331D"/>
<path d="M383.514 478.601L387.079 487.923L372.678 495.176L359.38 496.206C359.38 496.206 357.106 486.884 363.314 486.055C366.944 485.614 370.406 484.189 373.371 481.918L383.514 478.601ZM394.948 482.814C393.143 483.607 391.574 484.906 390.407 486.572C389.24 488.239 388.52 490.211 388.322 492.278L387.937 496.206H404.288V482.806L394.948 482.814Z" fill="#FDC168"/>
<path opacity="0.22" d="M498.82 55.6615V288.392C498.821 291.779 498.195 295.132 496.977 298.262C495.76 301.391 493.976 304.234 491.725 306.629C489.475 309.023 486.804 310.923 483.864 312.218C480.924 313.514 477.773 314.18 474.591 314.179H24.2288C17.8029 314.179 11.6402 311.462 7.09646 306.626C2.55267 301.79 0 295.231 0 288.392V55.6615C0.00832848 48.825 2.56368 42.2711 7.10566 37.437C11.6476 32.6028 17.8055 29.8831 24.2288 29.8743H474.607C481.027 29.8876 487.181 32.6092 491.72 37.4429C496.258 42.2765 498.811 48.8279 498.82 55.6615Z" fill="url(#paint0_linear_805_3085)"/>
<path d="M500 54.7991V287.521C500.001 293.422 498.101 299.146 494.617 303.736C491.133 308.327 486.275 311.507 480.855 312.747C479.186 313.122 477.485 313.31 475.779 313.308H25.4013C22.2185 313.31 19.0666 312.645 16.1256 311.35C13.1847 310.055 10.5124 308.156 8.26149 305.761C6.01059 303.366 4.22525 300.522 3.00751 297.393C1.78977 294.263 1.16352 290.908 1.16455 287.521V54.7991C1.1708 47.9597 3.72631 41.4023 8.27022 36.5661C12.8141 31.73 18.9752 29.0101 25.4013 29.0034H475.779C481.664 29.0045 487.347 31.2858 491.766 35.4211C496.186 39.5563 499.04 45.2627 499.795 51.4741C499.935 52.5761 500.004 53.6871 500 54.7991Z" fill="#FDC168"/>
<path d="M500 54.7991V287.521C500.001 293.422 498.101 299.146 494.617 303.736C491.133 308.327 486.275 311.507 480.854 312.747C479.186 313.122 477.484 313.31 475.779 313.308H25.4012C22.2185 313.31 19.0666 312.645 16.1256 311.35C13.1847 310.055 10.5124 308.156 8.26149 305.761C6.01059 303.366 4.22524 300.522 3.00751 297.393C1.78977 294.263 1.16352 290.908 1.16455 287.521V54.7991C1.1708 47.9597 3.72631 41.4023 8.27022 36.5661C12.8141 31.73 18.9752 29.0101 25.4012 29.0034H475.779C481.664 29.0045 487.347 31.2858 491.766 35.4211C496.186 39.5563 499.04 45.2627 499.795 51.4741C499.935 52.5761 500.004 53.6871 500 54.7991Z" fill="url(#paint1_linear_805_3085)"/>
<path d="M498.631 52.345H0.20459C0.961553 46.1328 3.81719 40.4263 8.23819 36.2912C12.6592 32.1561 18.3432 29.8751 24.2288 29.8743H474.607C480.493 29.8734 486.178 32.1537 490.599 36.2892C495.02 40.4246 497.875 46.1321 498.631 52.345Z" fill="url(#paint2_linear_805_3085)"/>
<path d="M325.543 233.677H156.941C153.499 233.677 150.708 236.647 150.708 240.31V251.223C150.708 254.886 153.499 257.856 156.941 257.856H325.543C328.985 257.856 331.775 254.886 331.775 251.223V240.31C331.775 236.647 328.985 233.677 325.543 233.677Z" fill="white" stroke="#FDC168" stroke-width="0.88" stroke-miterlimit="10"/>
<path d="M165.471 251.357C168.204 251.357 170.42 248.998 170.42 246.089C170.42 243.179 168.204 240.821 165.471 240.821C162.737 240.821 160.521 243.179 160.521 246.089C160.521 248.998 162.737 251.357 165.471 251.357Z" fill="#FDC168"/>
<path d="M180.87 251.357C183.604 251.357 185.82 248.998 185.82 246.089C185.82 243.179 183.604 240.821 180.87 240.821C178.137 240.821 175.921 243.179 175.921 246.089C175.921 248.998 178.137 251.357 180.87 251.357Z" fill="#FDC168"/>
<path d="M196.278 251.357C199.012 251.357 201.228 248.998 201.228 246.089C201.228 243.179 199.012 240.821 196.278 240.821C193.544 240.821 191.328 243.179 191.328 246.089C191.328 248.998 193.544 251.357 196.278 251.357Z" fill="#FDC168"/>
<path d="M211.678 251.357C214.411 251.357 216.627 248.998 216.627 246.089C216.627 243.179 214.411 240.821 211.678 240.821C208.944 240.821 206.728 243.179 206.728 246.089C206.728 248.998 208.944 251.357 211.678 251.357Z" fill="#FDC168"/>
<path d="M343.996 244.648V241.868H346.057V240.075H343.996V238.735H346.057V236.943H341.926V244.648C340.671 244.921 339.556 245.68 338.797 246.779C338.037 247.877 337.688 249.236 337.817 250.593C337.946 251.95 338.544 253.207 339.494 254.121C340.444 255.036 341.68 255.542 342.961 255.542C344.242 255.542 345.478 255.036 346.428 254.121C347.378 253.207 347.976 251.95 348.105 250.593C348.234 249.236 347.885 247.877 347.125 246.779C346.366 245.68 345.251 244.921 343.996 244.648ZM342.965 253.861C342.253 253.863 341.557 253.64 340.965 253.22C340.372 252.801 339.91 252.203 339.637 251.504C339.364 250.805 339.291 250.035 339.429 249.292C339.567 248.549 339.909 247.866 340.411 247.33C340.914 246.794 341.555 246.429 342.253 246.28C342.95 246.132 343.674 246.207 344.331 246.497C344.989 246.786 345.551 247.277 345.947 247.906C346.342 248.536 346.553 249.276 346.553 250.034C346.553 251.048 346.176 252.021 345.503 252.74C344.831 253.459 343.918 253.865 342.965 253.869V253.861Z" fill="#FDC168"/>
<path d="M271.986 105.385H220.349C215.238 105.385 211.095 109.795 211.095 115.234V170.193C211.095 175.632 215.238 180.042 220.349 180.042H271.986C277.097 180.042 281.24 175.632 281.24 170.193V115.234C281.24 109.795 277.097 105.385 271.986 105.385Z" fill="url(#paint3_linear_805_3085)"/>
<path d="M272.27 105.385H224.355C219.405 105.385 215.392 109.656 215.392 114.925V170.503C215.392 175.771 219.405 180.042 224.355 180.042H272.27C277.22 180.042 281.233 175.771 281.233 170.503V114.925C281.233 109.656 277.22 105.385 272.27 105.385Z" fill="#FDC168"/>
<path d="M283.947 142.956L280.327 146.616L278.754 148.191C277.513 146.615 275.939 145.375 274.161 144.573C272.382 143.77 270.45 143.429 268.524 143.576C267.681 143.685 266.827 143.536 266.061 143.149C263.456 141.574 267.54 136.206 267.54 136.206C268.439 136.185 269.338 136.227 270.232 136.332C270.31 136.323 270.389 136.323 270.468 136.332L271.184 136.424C274.599 136.943 280.162 138.677 283.947 142.956Z" fill="white"/>
<path opacity="0.39" d="M280.186 146.273L280.327 146.616L278.753 148.191C277.513 146.615 275.939 145.375 274.16 144.573C272.382 143.771 270.45 143.429 268.524 143.576C267.681 143.685 266.827 143.537 266.061 143.149L267.54 136.206C267.54 136.206 268.996 136.206 270.231 136.332C270.31 136.323 270.389 136.323 270.467 136.332C270.707 136.347 270.947 136.378 271.183 136.424C271.183 136.424 272.041 140.327 271.404 141.968C271.404 141.993 277.439 143.065 280.186 146.273Z" fill="url(#paint4_linear_805_3085)"/>
<path d="M247.387 121.122H244.948C242.988 121.122 241.399 122.813 241.399 124.9V160.528C241.399 162.614 242.988 164.305 244.948 164.305H247.387C249.347 164.305 250.936 162.614 250.936 160.528V124.9C250.936 122.813 249.347 121.122 247.387 121.122Z" fill="url(#paint5_linear_805_3085)"/>
<path d="M268.508 142.127C268.468 146.648 266.754 150.97 263.738 154.153C260.722 157.337 256.648 159.125 252.4 159.129H248.93C248.406 159.128 247.893 158.971 247.449 158.675C247.005 158.379 246.648 157.956 246.419 157.454C246.207 157 246.108 156.496 246.131 155.989C246.153 155.483 246.297 154.991 246.549 154.561C246.8 154.13 247.151 153.775 247.568 153.53C247.984 153.284 248.453 153.156 248.93 153.157H250.22C251.619 153.158 253.004 152.861 254.294 152.284C255.583 151.707 256.752 150.861 257.73 149.797C258.709 148.733 259.478 147.472 259.992 146.087C260.506 144.702 260.756 143.222 260.725 141.734C260.631 138.783 259.458 135.987 257.456 133.943C255.455 131.898 252.782 130.766 250.008 130.787H248.434C247.824 130.787 247.24 130.53 246.809 130.071C246.378 129.612 246.136 128.99 246.136 128.342V127.303C246.136 126.655 246.378 126.033 246.809 125.574C247.24 125.115 247.824 124.858 248.434 124.858H252.124C261.04 124.849 268.571 132.621 268.508 142.127Z" fill="white"/>
<path opacity="0.39" d="M264.211 142.814C264.18 146.745 262.692 150.505 260.071 153.274C257.449 156.044 253.906 157.6 250.212 157.605H247.191C246.923 157.605 246.658 157.56 246.404 157.471C246.192 157.017 246.092 156.512 246.115 156.006C246.138 155.5 246.282 155.008 246.533 154.577C246.785 154.147 247.135 153.792 247.552 153.546C247.969 153.301 248.438 153.173 248.914 153.174H250.205C251.603 153.174 252.988 152.877 254.278 152.3C255.568 151.723 256.736 150.878 257.715 149.814C258.693 148.75 259.462 147.488 259.977 146.104C260.491 144.719 260.74 143.239 260.71 141.75C260.615 138.799 259.443 136.004 257.441 133.959C255.439 131.915 252.766 130.783 249.992 130.804H248.418C247.809 130.804 247.224 130.546 246.793 130.088C246.363 129.629 246.12 129.007 246.12 128.358V127.898C246.324 127.827 246.536 127.79 246.75 127.789H249.953C253.712 127.78 257.323 129.355 259.994 132.171C262.666 134.986 264.182 138.813 264.211 142.814Z" fill="url(#paint6_linear_805_3085)"/>
<path d="M260.222 138.584C260.222 138.584 261.276 141.591 259.962 146.181C259.962 146.181 254.981 151.633 259.23 160.301L262.74 164.296L258.656 168.576C256.117 166.483 254.148 163.71 252.949 160.54C251.75 157.369 251.365 153.917 251.833 150.536C252.738 143.149 260.222 138.584 260.222 138.584Z" fill="white"/>
<path d="M255.17 172.027L287.512 139.364L314.644 164.297L281.232 198.409L255.17 172.027ZM255.17 172.027L257.318 184.975L281.232 209.397V198.409L255.17 172.027Z" fill="#FDC168"/>
<path d="M314.644 164.296V176.181L281.232 209.397V198.409L314.644 164.296Z" fill="#FDC168"/>
<path d="M255.17 172.027L257.318 184.975L281.232 209.397V198.409L255.17 172.027Z" fill="url(#paint7_linear_805_3085)"/>
<path d="M314.644 164.296V176.181L281.232 209.397V198.409L314.644 164.296Z" fill="url(#paint8_linear_805_3085)"/>
<path d="M261.135 178.065L293.783 145.126L296.797 147.898L264.212 181.181L261.135 178.065Z" fill="url(#paint9_linear_805_3085)"/>
<path d="M270.774 187.605L304.202 154.665L307.216 157.429L273.851 190.712L270.774 187.605Z" fill="url(#paint10_linear_805_3085)"/>
<path opacity="0.21" d="M364.023 220.034C363.694 225.208 363.958 230.405 364.81 235.511C365.345 238.668 366.061 242.144 364.534 244.925C363.747 246.432 362.331 247.487 361.064 248.601C353.022 255.637 348.371 266.08 341.502 274.405C341.047 275.09 340.386 275.59 339.629 275.821C338.85 275.875 338.077 275.641 337.441 275.159C333.258 272.59 329.742 268.951 327.211 264.573C325.976 262.429 324.851 259.983 322.726 258.886C318.791 256.826 314.023 261.206 313.59 265.871C313.157 270.536 315.51 274.925 317.784 278.936L328.305 297.513C331.508 303.174 334.884 309.029 340.109 312.588C343.725 314.934 347.787 316.393 351.999 316.859C357.964 317.697 364.015 317.278 370.019 316.784C380.999 315.879 391.95 314.718 402.872 313.3C406.618 312.814 410.875 311.943 412.772 308.484C414.046 306.156 413.873 303.283 413.653 300.603C412.882 290.893 412.095 281.187 411.292 271.482C410.859 265.98 410.214 260 406.571 256.08C404.391 253.752 401.338 252.429 399.402 249.858C398.018 247.796 397.127 245.408 396.805 242.898C394.94 232.429 396.727 221.181 392.871 211.323C392.084 209.33 391.029 207.354 389.29 206.24C387.694 205.359 385.897 204.973 384.105 205.126C375.488 205.385 364.652 209.757 364.023 220.034Z" fill="url(#paint11_linear_805_3085)"/>
<path opacity="0.18" d="M481.091 367.856C476.424 425.084 328.494 406.75 222.112 383.551C115.73 360.352 27.9588 406.75 7.71954 367.856C-1.24332 350.636 4.74503 329.129 14.2115 310.502C17.8196 312.643 21.8845 313.759 26.0151 313.744H472.38C478.525 329.146 482.751 347.571 481.091 367.856Z" fill="#FDC168"/>
<path d="M364.88 344.079L355.193 419.171C354.787 422.332 355.097 425.552 356.098 428.559L373.41 482.814L383.53 479.464L375.897 425.486C375.734 424.367 375.804 423.223 376.102 422.136L389.235 373.861L394.948 482.739H404.289L412.323 375.293C415.045 357.337 410.056 344.079 410.056 344.079H364.88Z" fill="#564C3D"/>
<path d="M414.526 324.196L404.942 258.484L403.604 250.477C403.604 250.477 421.498 261.365 426.629 280.41C433.341 305.41 414.526 324.196 414.526 324.196Z" fill="#FDC168"/>
<path d="M414.526 324.196L404.942 258.484L403.604 250.477C403.604 250.477 421.498 261.365 426.629 280.41C433.341 305.41 414.526 324.196 414.526 324.196Z" fill="url(#paint12_linear_805_3085)"/>
<path d="M424.362 308.903C431.626 293.618 417.28 267.027 417.28 267.027L404.926 258.492L406.319 249.003C406.319 249.003 426.243 251.172 428.187 281.114C428.832 290.754 428.155 302.663 424.362 308.903Z" fill="#FDC168"/>
<path d="M321.711 257.596C321.042 255.184 319.877 252.312 317.516 252.094C318.156 254.293 318.062 256.66 317.249 258.794C312.102 256.767 310.906 248.744 305.768 246.667C304.981 247.554 305.422 249.003 305.909 250.109C306.807 252.169 307.709 254.229 308.616 256.29C307.41 254.269 306.127 252.314 304.768 250.427C304.367 249.849 303.675 249.221 303.108 249.59C302.542 249.958 302.746 250.737 302.951 251.34C303.848 254.02 304.871 256.658 305.996 259.238C304.733 256.981 303.288 254.845 301.676 252.856C300.621 253.132 300.842 254.791 301.298 255.837L304.674 263.492L301.967 259.305C301.094 259.397 301.227 260.821 301.652 261.642C305.282 268.54 310.954 273.967 317.784 277.077C319.169 277.705 320.774 278.224 322.135 277.546C327.99 274.707 322.844 261.734 321.711 257.596Z" fill="url(#paint13_linear_805_3085)"/>
<path d="M414.526 277.923V329.447C414.526 335.762 413.558 340.896 407.617 340.896H366.132C360.214 340.896 359.986 335.812 359.947 329.523L359.64 294.506C359.64 294.506 350.685 311.482 343.54 309.832C336.394 308.183 315.211 277.102 315.211 277.102L325.755 267.672L343.524 286.633C343.524 286.633 346.38 279.724 350.535 264.255C354.69 248.786 368.193 248.744 368.193 248.744H404.265C417.288 248.744 414.526 277.923 414.526 277.923Z" fill="#FDC168"/>
<path d="M414.526 283.727C414.526 283.727 420.759 293.049 414.526 302.37V283.727Z" fill="#564C3D"/>
<path d="M364.88 340.57H410.057V344.079H364.88V340.57Z" fill="url(#paint14_linear_805_3085)"/>
<path d="M380.264 213.702H393.303V248.987H380.264V213.702Z" fill="url(#paint15_linear_805_3085)"/>
<path d="M393.311 209.833V248.995H386.434V246.608C386.434 245.913 386.305 245.225 386.055 244.584C385.805 243.942 385.438 243.359 384.976 242.868C384.515 242.377 383.966 241.988 383.363 241.723C382.76 241.458 382.113 241.322 381.46 241.323H381.067C377.79 241.323 374.648 239.938 372.331 237.472C370.014 235.006 368.712 231.662 368.712 228.174V209.833H393.311Z" fill="url(#paint16_linear_805_3085)"/>
<path d="M368.712 213.702C368.712 213.702 357.302 207.077 361.386 199.824C365.47 192.571 372.128 197.136 372.128 197.136H394.122C394.122 197.136 396.648 196.717 397.623 201.273C398.599 205.829 393.343 234.112 393.343 234.112H382.412L381.012 226.759C381.012 226.759 383.191 224.246 382.995 221.575C383.013 221.074 382.869 220.583 382.586 220.183C382.304 219.783 381.901 219.498 381.445 219.377C380.988 219.256 380.507 219.306 380.081 219.519C379.656 219.731 379.312 220.094 379.107 220.544C378.124 222.404 378.517 214.531 375.016 213.702C372.941 213.201 370.787 213.201 368.712 213.702Z" fill="#564C3D"/>
<path d="M390.392 248.92C390.392 248.92 385.332 255.971 378.321 255.971C371.309 255.971 350.881 277.303 349.512 283.727C348.143 290.151 343.54 286.633 343.54 286.633C343.54 286.633 346.396 279.724 350.551 264.255C354.706 248.786 368.193 248.744 368.193 248.744H386.528L390.392 248.92Z" fill="url(#paint17_linear_805_3085)"/>
<path d="M383.514 478.601L387.079 487.923L372.678 495.176L359.38 496.206C359.38 496.206 357.106 486.884 363.314 486.055C366.944 485.614 370.406 484.189 373.371 481.918L383.514 478.601Z" fill="url(#paint18_linear_805_3085)"/>
<path d="M394.948 482.814C393.143 483.607 391.574 484.906 390.407 486.572C389.24 488.239 388.52 490.211 388.322 492.278L387.937 496.206H404.288V482.806L394.948 482.814Z" fill="url(#paint19_linear_805_3085)"/>
<path opacity="0.18" d="M94.531 30.3096C94.531 30.3096 195.538 -37.8897 324.89 30.3096H94.531Z" fill="#FDC168"/>
</g>
<defs>
<linearGradient id="paint0_linear_805_3085" x1="0" y1="172.027" x2="498.835" y2="172.027" gradientUnits="userSpaceOnUse">
<stop stop-color="#FDC168"/>
<stop offset="1" stop-color="#EBB769"/>
</linearGradient>
<linearGradient id="paint1_linear_805_3085" x1="-71.1285" y1="101.273" x2="691.496" y2="247.522" gradientUnits="userSpaceOnUse">
<stop stop-color="white" stop-opacity="0"/>
<stop offset="1" stop-color="white"/>
</linearGradient>
<linearGradient id="paint2_linear_805_3085" x1="-42.6031" y1="47.6548" x2="848.878" y2="30.7155" gradientUnits="userSpaceOnUse">
<stop offset="0.02" stop-opacity="0"/>
<stop offset="0.99" stop-color="#564C3D"/>
</linearGradient>
<linearGradient id="paint3_linear_805_3085" x1="247.01" y1="142.37" x2="89.9783" y2="198.043" gradientUnits="userSpaceOnUse">
<stop stop-color="#FDC168"/>
<stop offset="0.01" stop-color="#F9BF67"/>
<stop offset="0.12" stop-color="#CEA05C"/>
<stop offset="0.24" stop-color="#A98753"/>
<stop offset="0.37" stop-color="#8B724C"/>
<stop offset="0.5" stop-color="#736146"/>
<stop offset="0.63" stop-color="#635642"/>
<stop offset="0.79" stop-color="#594F40"/>
<stop offset="0.99" stop-color="#564C3D"/>
</linearGradient>
<linearGradient id="paint4_linear_805_3085" x1="266.045" y1="142.203" x2="280.327" y2="142.203" gradientUnits="userSpaceOnUse">
<stop stop-color="#FDC168"/>
<stop offset="1" stop-color="#EBB769"/>
</linearGradient>
<linearGradient id="paint5_linear_805_3085" x1="236.024" y1="142.672" x2="316.738" y2="142.916" gradientUnits="userSpaceOnUse">
<stop stop-opacity="0"/>
<stop offset="0.02" stop-color="#040403" stop-opacity="0.04"/>
<stop offset="0.18" stop-color="#211D18" stop-opacity="0.39"/>
<stop offset="0.35" stop-color="#393228" stop-opacity="0.66"/>
<stop offset="0.53" stop-color="#494134" stop-opacity="0.85"/>
<stop offset="0.73" stop-color="#53493B" stop-opacity="0.96"/>
<stop offset="0.99" stop-color="#564C3D"/>
</linearGradient>
<linearGradient id="paint6_linear_805_3085" x1="277.022" y1="141.7" x2="252.452" y2="142.462" gradientUnits="userSpaceOnUse">
<stop stop-color="#FDC168"/>
<stop offset="1" stop-color="#EBB769"/>
</linearGradient>
<linearGradient id="paint7_linear_805_3085" x1="262.024" y1="208.3" x2="291.433" y2="134.378" gradientUnits="userSpaceOnUse">
<stop stop-opacity="0"/>
<stop offset="0.02" stop-color="#040403" stop-opacity="0.04"/>
<stop offset="0.18" stop-color="#211D18" stop-opacity="0.39"/>
<stop offset="0.35" stop-color="#393228" stop-opacity="0.66"/>
<stop offset="0.53" stop-color="#494134" stop-opacity="0.85"/>
<stop offset="0.73" stop-color="#53493B" stop-opacity="0.96"/>
<stop offset="0.99" stop-color="#564C3D"/>
</linearGradient>
<linearGradient id="paint8_linear_805_3085" x1="301.873" y1="201.432" x2="279.405" y2="127.828" gradientUnits="userSpaceOnUse">
<stop stop-opacity="0"/>
<stop offset="0.02" stop-color="#040403" stop-opacity="0.04"/>
<stop offset="0.18" stop-color="#211D18" stop-opacity="0.39"/>
<stop offset="0.35" stop-color="#393228" stop-opacity="0.66"/>
<stop offset="0.53" stop-color="#494134" stop-opacity="0.85"/>
<stop offset="0.73" stop-color="#53493B" stop-opacity="0.96"/>
<stop offset="0.99" stop-color="#564C3D"/>
</linearGradient>
<linearGradient id="paint9_linear_805_3085" x1="292.438" y1="142.571" x2="183.867" y2="287.843" gradientUnits="userSpaceOnUse">
<stop stop-opacity="0"/>
<stop offset="0.02" stop-color="#040403" stop-opacity="0.04"/>
<stop offset="0.18" stop-color="#211D18" stop-opacity="0.39"/>
<stop offset="0.35" stop-color="#393228" stop-opacity="0.66"/>
<stop offset="0.53" stop-color="#494134" stop-opacity="0.85"/>
<stop offset="0.73" stop-color="#53493B" stop-opacity="0.96"/>
<stop offset="0.99" stop-color="#564C3D"/>
</linearGradient>
<linearGradient id="paint10_linear_805_3085" x1="303.368" y1="150.737" x2="194.797" y2="296.017" gradientUnits="userSpaceOnUse">
<stop stop-opacity="0"/>
<stop offset="0.02" stop-color="#040403" stop-opacity="0.04"/>
<stop offset="0.18" stop-color="#211D18" stop-opacity="0.39"/>
<stop offset="0.35" stop-color="#393228" stop-opacity="0.66"/>
<stop offset="0.53" stop-color="#494134" stop-opacity="0.85"/>
<stop offset="0.73" stop-color="#53493B" stop-opacity="0.96"/>
<stop offset="0.99" stop-color="#564C3D"/>
</linearGradient>
<linearGradient id="paint11_linear_805_3085" x1="334.561" y1="229.397" x2="543.296" y2="414.047" gradientUnits="userSpaceOnUse">
<stop stop-opacity="0"/>
<stop offset="0.02" stop-color="#040403" stop-opacity="0.04"/>
<stop offset="0.18" stop-color="#211D18" stop-opacity="0.39"/>
<stop offset="0.35" stop-color="#393228" stop-opacity="0.66"/>
<stop offset="0.53" stop-color="#494134" stop-opacity="0.85"/>
<stop offset="0.73" stop-color="#53493B" stop-opacity="0.96"/>
<stop offset="0.99" stop-color="#564C3D"/>
</linearGradient>
<linearGradient id="paint12_linear_805_3085" x1="431.429" y1="280.302" x2="261.648" y2="327.405" gradientUnits="userSpaceOnUse">
<stop stop-opacity="0"/>
<stop offset="0.02" stop-color="#040403" stop-opacity="0.04"/>
<stop offset="0.18" stop-color="#211D18" stop-opacity="0.39"/>
<stop offset="0.35" stop-color="#393228" stop-opacity="0.66"/>
<stop offset="0.53" stop-color="#494134" stop-opacity="0.85"/>
<stop offset="0.73" stop-color="#53493B" stop-opacity="0.96"/>
<stop offset="0.99" stop-color="#564C3D"/>
</linearGradient>
<linearGradient id="paint13_linear_805_3085" x1="300.921" y1="262.286" x2="324.89" y2="262.286" gradientUnits="userSpaceOnUse">
<stop stop-color="#ECDCC4"/>
<stop offset="0.42" stop-color="#EFE3D1"/>
<stop offset="1" stop-color="#FF9900"/>
</linearGradient>
<linearGradient id="paint14_linear_805_3085" x1="364.88" y1="342.328" x2="410.057" y2="342.328" gradientUnits="userSpaceOnUse">
<stop stop-color="#FDC168"/>
<stop offset="1" stop-color="#EBB769"/>
</linearGradient>
<linearGradient id="paint15_linear_805_3085" x1="382.759" y1="231.424" x2="404.171" y2="231.062" gradientUnits="userSpaceOnUse">
<stop stop-color="#ECDCC4"/>
<stop offset="0.42" stop-color="#EFE3D1"/>
<stop offset="1" stop-color="#FF9900"/>
</linearGradient>
<linearGradient id="paint16_linear_805_3085" x1="384.01" y1="227.73" x2="379.48" y2="229.976" gradientUnits="userSpaceOnUse">
<stop stop-color="#ECDCC4"/>
<stop offset="0.42" stop-color="#EFE3D1"/>
<stop offset="1" stop-color="#FF9900"/>
</linearGradient>
<linearGradient id="paint17_linear_805_3085" x1="393.965" y1="279.104" x2="337.41" y2="258.3" gradientUnits="userSpaceOnUse">
<stop stop-color="white" stop-opacity="0"/>
<stop offset="1" stop-color="white"/>
</linearGradient>
<linearGradient id="paint18_linear_805_3085" x1="358.971" y1="487.404" x2="387.079" y2="487.404" gradientUnits="userSpaceOnUse">
<stop stop-opacity="0"/>
<stop offset="0.02" stop-color="#040403" stop-opacity="0.04"/>
<stop offset="0.18" stop-color="#211D18" stop-opacity="0.39"/>
<stop offset="0.35" stop-color="#393228" stop-opacity="0.66"/>
<stop offset="0.53" stop-color="#494134" stop-opacity="0.85"/>
<stop offset="0.73" stop-color="#53493B" stop-opacity="0.96"/>
<stop offset="0.99" stop-color="#564C3D"/>
</linearGradient>
<linearGradient id="paint19_linear_805_3085" x1="387.921" y1="489.514" x2="404.273" y2="489.514" gradientUnits="userSpaceOnUse">
<stop stop-opacity="0"/>
<stop offset="0.02" stop-color="#040403" stop-opacity="0.04"/>
<stop offset="0.18" stop-color="#211D18" stop-opacity="0.39"/>
<stop offset="0.35" stop-color="#393228" stop-opacity="0.66"/>
<stop offset="0.53" stop-color="#494134" stop-opacity="0.85"/>
<stop offset="0.73" stop-color="#53493B" stop-opacity="0.96"/>
<stop offset="0.99" stop-color="#564C3D"/>
</linearGradient>
<clipPath id="clip0_805_3085">
<rect width="500" height="500" fill="white"/>
</clipPath>
</defs>
</svg>
