<svg width="500" height="500" viewBox="0 0 500 500" fill="none" xmlns="http://www.w3.org/2000/svg">
<path fill-rule="evenodd" clip-rule="evenodd" d="M196.25 384.292C130.098 388.796 59.3857 335.325 59.3857 270.25C59.3857 205.171 164.239 232.906 198.252 181.256C279.748 57.5876 444.274 256.592 386.434 278.802C270.541 323.275 354.935 373.479 196.25 384.292Z" fill="#F2F2F7"/>
<path d="M377.005 267.633C377.04 267.807 377.13 267.969 377.167 268.143C377.459 269.769 377.645 270.875 377.452 272.296C376.989 275.333 374.866 278.277 376.094 282.124C377.416 287.576 384.094 290.891 385.89 285.486C386.92 281.916 385.167 277.571 383.206 273.628C382.113 271.514 380.855 269.49 379.445 267.574C380.989 267.472 382.509 267.133 383.95 266.567C384.254 266.447 384.502 266.338 384.806 266.217C384.892 266.26 385.033 266.292 385.119 266.335C387.767 265.213 389.939 264.124 392.633 263.413C397.265 262.08 403.133 260.745 403.571 255.788C403.617 254.215 402.176 252.635 400.669 251.488C398.632 250.122 396.145 249.599 393.73 250.028C389.57 250.546 386.698 253.036 385.142 256.108C384.184 258.041 383.742 260.232 383.442 262.456C383.375 263.551 383.117 264.745 383.389 265.894C381.622 266.603 379.668 266.867 377.593 266.915C377.492 266.888 377.385 266.888 377.284 266.915C376.542 266.933 375.799 266.898 375.062 266.811C374.893 263.417 376.277 260.258 377.489 257.013C377.884 255.733 378.422 254.485 378.559 253.074C379.624 253.398 380.726 253.585 381.839 253.631C383.894 253.768 385.641 252.581 384.858 250.631C383.458 248.021 378.604 246.751 375.973 246.247C373.732 245.905 371.456 245.848 369.201 246.077C368.89 246.087 368.582 246.128 368.279 246.199C369.601 244.916 370.868 243.645 372.104 242.319C373.209 241.2 374.252 239.972 375.326 238.798C378.838 239.55 382.036 241.506 385.289 243.451C389.239 245.98 393.368 248.715 397.414 247.438C400.816 246.227 400.637 241.933 396.767 239.327C392.842 236.733 388.134 235.615 383.969 235.352C382.277 235.243 380.579 235.276 378.892 235.45C378.725 235.483 378.528 235.462 378.305 235.506L381.208 232.409C382.849 230.703 384.52 229.051 386.161 227.344C386.359 227.366 386.611 227.376 386.865 227.386C387.938 227.536 388.388 227.567 389.492 227.771C392.239 228.373 395.028 229.267 397.771 229.749C400.399 230.185 403.073 230.285 405.727 230.046C407.656 229.846 409.695 229.626 411.29 228.831C414.176 227.361 414.457 223.998 410.344 221.621C406.75 219.764 402.679 219.036 398.664 219.531C397.606 219.74 396.345 219.806 395.409 220.231L394.62 219.485L394.731 219.463C397.01 218.232 399.526 217.316 402.098 216.388C405.474 215.242 409.079 214.172 412.734 212.971C414.257 213.813 415.578 214.516 417.146 215.771C421.355 219.091 424.357 224.453 428.449 228.338C431.256 231.032 438.612 235.777 442.151 235.141C449.451 233.824 435.569 223.388 432.266 220.912C428.472 218.112 424.389 215.788 420.26 213.715C418.893 213.015 417.479 212.409 416.03 211.902C420.875 210.286 425.659 208.563 430.095 206.547C430.895 206.209 431.664 205.817 432.378 205.436L432.464 205.479C433.005 205.673 433.633 205.911 434.205 206.159C435.116 206.46 436.982 207.476 437.357 207.703C444.637 211.982 449.187 219.444 457.1 223.418C460.43 225.168 464.63 226.265 467.288 224.719C471.679 220.969 461.956 213.984 457.484 211.076C453.249 208.482 448.659 206.801 444.09 205.595C441.801 204.958 439.464 204.513 437.101 204.266C436.364 204.172 435.621 204.137 434.879 204.162C440.367 201.286 445.497 197.773 450.162 193.697C450.39 193.772 450.643 193.782 450.871 193.858C452.179 194.227 453.464 194.677 454.716 195.205C457.945 196.554 460.393 198.055 463.316 200.186C466.933 202.781 470.57 205.853 474.882 206.929C476.38 207.175 478.101 207.377 479.108 206.638C479.975 205.866 480.168 204.445 479.273 203.178C478.039 201.196 475.844 199.703 473.765 198.31C471.87 197.04 469.89 195.903 467.84 194.906C465.352 193.651 462.743 192.654 460.052 191.93C457.903 191.322 455.717 190.848 453.509 190.512C454.314 189.632 455.12 188.752 455.895 187.818L455.95 187.807C459.297 185.945 463.225 184.57 465.46 181.605C466.362 180.345 467.148 178.988 467.048 177.264C467.085 174.791 463.513 172.608 460.948 172.331C458.265 171.956 456.448 173.458 455.798 175.39C455.113 177.81 455.733 180.574 455.559 183.133C455.52 184.339 455.363 185.538 455.091 186.713C455.066 186.77 455.054 186.832 455.056 186.894C455.059 186.956 455.076 187.016 455.106 187.071C454.169 188.157 453.231 189.244 452.183 190.352C451.415 191.156 450.603 191.918 449.752 192.635C450.219 191.04 450.058 189.207 449.113 187.41C448.527 186.142 447.085 185.223 445.663 184.782C442.455 183.91 441.567 186.19 442.876 188.638C443.857 190.609 446.006 193.013 445.924 194.413C445.94 194.796 445.928 195.181 445.888 195.563C445.851 195.627 445.831 195.699 445.829 195.773C445.827 195.846 445.844 195.92 445.878 195.985C443.603 197.771 441.215 199.406 438.728 200.881C439.63 198.959 440.3 196.843 439.694 194.437C439.154 192.258 436.923 189.932 434.291 190.089C431.826 190.214 430.17 191.562 428.828 193.029C426.108 195.789 425.653 200.388 424.614 203.72C424.147 205.315 423.367 206.791 422.556 208.214C422.481 208.409 422.181 208.648 422.221 208.941C415.863 211.275 409.346 213.22 402.7 215.37C399.85 216.352 397.03 217.389 394.447 218.739C395.572 217.435 396.641 216.142 397.679 214.795C399.004 214.955 400.204 214.779 400.965 214.148C401.805 213.442 401.437 212.011 400.36 211.081C400.912 210.19 401.52 209.289 402.042 208.344C404.946 209.997 407.744 211.13 409.952 210.214C411.82 209.245 410.39 206.58 408.427 205.283C407.599 204.718 406.724 204.226 405.811 203.814C406.775 203.086 407.8 202.442 408.874 201.889C413.654 199.384 419.349 197.964 423.452 194.689C425.518 193.079 427.832 191.361 428.396 188.724C428.579 187.726 428.64 186.512 427.755 185.483C424.392 182.237 419.82 184.34 417.233 185.571C415.008 186.675 413.105 188.333 411.708 190.387C410.329 192.342 409.442 194.621 408.383 196.814C407.932 197.719 407.435 198.6 406.893 199.452C407.024 199.246 407.126 198.986 407.258 198.779C408.236 196.662 409.042 194.459 409.849 192.256C409.96 192.234 409.985 192.169 410.097 192.147C410.142 192.117 410.179 192.076 410.206 192.029C410.234 191.982 410.25 191.93 410.254 191.876C410.238 191.755 410.195 191.64 410.128 191.54C410.153 191.475 410.178 191.409 410.234 191.398C410.311 191.415 410.391 191.404 410.461 191.368C410.531 191.333 410.587 191.274 410.619 191.202C412.069 187.61 416.603 181.245 413.069 176.589C412.592 176.157 411.972 175.915 411.328 175.91C409.643 175.881 408.766 177.076 408.224 178.205C406.997 181.092 406.914 184.476 407.761 187.977C407.981 188.96 408.256 189.929 408.584 190.881C408.706 191.098 408.716 191.337 408.893 191.542C408.341 191.771 407.819 192.054 407.268 192.283C406.73 190.572 406.347 188.816 406.122 187.037C405.8 184.695 405.449 180.976 402.676 179.117C402.25 178.876 401.749 178.807 401.274 178.923C400.799 179.039 400.386 179.332 400.12 179.742C398.954 181.414 399.504 183.831 400.353 186.009C401.104 187.902 402.103 189.687 403.325 191.317C403.834 192.018 404.406 192.67 405.035 193.265L405.065 193.319C404.215 193.788 403.365 194.256 402.599 194.767C399.703 196.66 397.246 199.008 394.815 201.29C394.572 201.519 394.354 201.682 394.111 201.91C393.782 201.434 393.509 200.946 393.236 200.459C392.35 198.865 391.587 197.206 390.952 195.497C389.852 192.647 388.305 187.9 384.612 185.501C383.428 184.711 382.122 185.029 381.621 185.789C380.805 187.092 381.644 189.031 382.3 190.646C383.483 193.42 385.364 196.116 387.462 198.649C388.701 200.089 389.91 201.474 391.286 202.827C391.605 203.065 391.873 203.433 392.217 203.606C390.596 205.128 388.919 206.66 387.243 208.193C385.743 205.181 384.787 202.483 383.59 199.351C382.433 196.513 381.24 193.501 378.696 191.055C376.628 189.237 374.314 189.633 373.716 191.434C372.605 194.419 374.004 198.352 375.885 201.709C377.115 203.756 378.589 205.646 380.274 207.339C381.281 208.37 382.343 209.345 383.455 210.26C383.744 210.444 384.007 210.693 384.295 210.877C383.51 211.572 382.7 212.333 381.915 213.029L379.56 215.116C379.504 215.127 379.448 215.138 379.479 215.191C379.423 215.202 379.454 215.256 379.454 215.256C378.856 215.735 378.233 216.278 377.635 216.756L377.58 216.767C375.573 212.412 373.172 208.014 369.526 204.042C367.847 202.148 365.971 200.232 363.669 198.882C361.109 197.401 357.182 196.13 356.825 199.026C356.692 201.879 358.85 204.52 361.471 206.77C359.721 205.852 357.843 205.26 356.071 205.188C355.019 205.134 353.987 205.485 353.185 206.168C352.384 206.851 351.874 207.816 351.761 208.863C351.597 212.984 355.81 217.085 358.798 220.766C360.422 222.671 361.913 224.783 361.902 226.529C361.876 227.077 361.786 227.619 361.633 228.146C361.558 228.341 361.394 228.493 361.516 228.71C361.549 228.781 361.598 228.844 361.659 228.894C361.719 228.945 361.79 228.981 361.866 229.002C361.728 229.135 361.602 229.28 361.491 229.436C360.387 229.894 359.46 230.558 359.313 231.729C359.326 231.854 359.312 231.979 359.272 232.098C359.21 232.225 359.129 232.342 359.034 232.446C358.519 233.154 358.044 233.89 357.61 234.65C357.825 231.722 358.151 228.771 356.923 225.585C354.989 220.254 349.516 214.897 347.905 209.923C347.092 207.257 347.341 205.163 347.126 202.681C347.409 202.745 347.657 202.636 347.703 202.386C347.845 201.757 347.962 201.193 348.134 200.618C348.662 198.469 349.099 196.82 349.768 194.704C350.139 193.489 350.565 192.262 350.991 191.036L351.046 191.025C351.83 190.87 352.624 190.774 353.421 190.738C354.93 190.561 358.554 190.629 360.28 190.951C363.863 191.388 368.351 193.331 370.939 191.438C372.868 189.916 371.246 186.688 368.706 185.023C365.726 182.904 362.006 181.892 358.904 182.202C356.611 182.413 354.889 183.534 353.279 184.633C352.993 184.819 352.701 184.997 352.404 185.166C352.734 183.658 353.009 182.161 353.379 180.945C354.379 177.32 355.981 173.999 357.41 170.591C357.694 170.655 357.942 170.546 358.195 170.557C358.868 170.544 359.541 170.532 360.189 170.585C362.145 170.738 364.084 171.06 365.984 171.549C368.281 172.118 370.619 172.981 372.932 173.249C376.207 173.686 379.441 173.17 381.3 171.3C383.017 169.399 380.792 166.53 378.065 165.082C375.277 163.527 372.19 162.872 369.351 162.769C365.191 162.626 362.76 164.247 361.224 167.135C360.804 167.819 359.775 168.743 358.94 168.908C358.643 169.017 358.336 169.097 358.024 169.148C358.282 168.617 358.455 168.041 358.683 167.455C359.966 163.895 360.237 160.294 362.436 157.155C363.606 155.602 366.103 153.547 367.34 151.56C367.948 150.659 368.556 149.757 369.078 148.813C372.925 148.175 377.788 149.022 382.06 148.481C383.65 148.228 385.229 147.737 386.081 146.606C387.808 144.281 386.185 141.715 382.567 140.443C378.717 138.976 375.552 140.501 373.061 142.014C372.261 142.552 371.541 143.2 370.923 143.939C371.128 143.193 371.378 142.461 371.673 141.747C372.287 140.303 373.037 139.434 374.313 138.401C375.735 137.435 377.07 136.348 378.304 135.151C379.248 134.623 380.16 134.042 381.038 133.41C382.182 132.583 383.327 131.757 383.95 130.552C384.837 128.934 385.264 126.384 382.942 124.557C381.663 123.486 379.739 123.143 378.524 123.623C375.613 125.158 375.271 129.735 376.083 133.063C376.28 133.746 376.477 134.429 376.674 135.111L376.704 135.165C376.162 135.633 375.62 136.1 375.048 136.513C374.033 137.171 373.095 137.94 372.252 138.808C372.202 136.953 372.908 135.011 372.768 132.994C372.664 129.827 370.298 126.265 366.868 124.114C362.583 121.65 359.18 123.523 360.098 127.371C360.482 129.159 361.594 130.925 362.676 132.636C363.96 134.487 365.33 136.382 367.03 138.092C367.88 138.947 368.81 139.726 369.771 140.559C370.059 140.806 370.369 141.027 370.696 141.219C370.103 142.478 369.799 143.921 369.377 145.266C368.705 147.27 367.713 149.151 366.438 150.836C365.308 152.682 362.836 154.672 361.347 156.649C361.061 157.032 360.815 157.443 360.612 157.876C360.554 157.757 360.473 157.65 360.374 157.562C359.734 154.982 359.74 152.455 359.439 149.929C358.966 145.332 357.082 140.532 351.46 137.67C348.935 136.363 345.651 135.687 343.975 137.22C342.086 139.035 342.392 142.342 344.106 145.07C346.517 149.045 350.751 152.3 354.961 154.959C356.661 156.007 358.199 156.546 359.311 157.65L359.371 157.758C359.452 158.106 359.56 158.446 359.695 158.777C359.735 158.841 359.79 158.895 359.855 158.935C359.92 158.974 359.994 158.998 360.07 159.004C358.97 161.565 358.502 164.484 357.595 166.947C356.23 170.583 354.522 174.047 353.158 177.682C353.001 177.292 352.805 176.609 352.648 176.219C352.018 174.268 351.504 172.281 351.108 170.269C349.994 165.077 348.433 158.649 341.978 155.291C333.534 151.361 326.743 156.126 332.228 163.824C335.237 167.982 339.992 170.955 344.728 173.449C347.116 174.843 349.717 175.955 351.356 177.556C351.628 177.905 351.861 178.282 352.049 178.683C352.17 178.899 352.149 179.083 352.352 179.224L352.61 179.354C352.514 179.734 352.361 180.124 352.265 180.504C351.474 183.065 351.056 185.854 350.437 188.5C350.287 189.154 350.089 189.796 349.844 190.421C349.788 190.432 349.819 190.486 349.794 190.551C349.641 190.942 349.545 191.321 349.394 191.712C346.683 188.637 345.203 184.781 342.563 181.392C339.969 178.415 335.938 175.3 332.004 175.233C326.224 175.288 330.156 182.752 333.343 185.793C335.948 188.346 339.282 190.215 342.703 191.466C343.096 192.832 343.603 194.175 344.137 195.573C343.753 195.108 343.312 194.653 342.928 194.188C341.841 193.019 339.237 189.803 337.637 190.479C336.133 191.437 338.586 194.381 340.088 195.408C341.512 196.474 343.114 197.278 344.819 197.783L344.874 197.772C345.279 198.989 345.566 200.241 345.732 201.512C345.858 202.516 345.929 203.526 345.943 204.537C345.826 204.44 345.68 204.287 345.563 204.191C345.007 203.639 344.506 203.076 344.006 202.513C342.857 201.236 341.821 199.938 340.374 198.899C337.678 196.844 335.313 198.031 337.138 200.739C338.544 202.807 341.196 203.789 343.468 204.423C343.923 204.573 345.062 204.951 345.588 205.448L345.618 205.502C345.734 205.6 345.795 205.708 345.911 205.805C346.036 208.126 346.389 210.522 347.865 212.937C350.655 217.92 355.182 222.801 356.17 227.657C356.795 231.202 355.932 234.739 356.117 238.491C356.185 242.807 357.189 247.36 357.398 251.708C357.484 252.413 357.569 253.118 357.68 253.758C356.178 252.069 354.595 250.457 352.93 248.921C349.491 245.871 345.995 242.83 342.748 239.681C342.765 239.38 342.828 239.083 342.936 238.802C343.238 237.711 343.696 236.669 344.295 235.708C345.795 233.308 349.284 230.818 349.929 227.444C350.954 223.094 345.46 219.905 341.4 221.486C337.85 223.207 337.872 227.773 338.225 231.492C338.409 233.017 338.716 234.525 339.142 236.001L338.702 235.547C336.411 233.112 334.227 230.535 331.961 228.035C331.951 227.796 331.713 227.482 331.617 227.201C331.297 226.637 331.028 226.046 330.814 225.435C330.031 223.485 329.364 220.308 329.397 218.378C329.329 214.062 331.973 210.835 330.878 206.12C330.339 203.28 327.001 199.307 323.872 201.006C322.885 201.561 322.422 202.614 322.013 203.536C321.348 205.111 321.114 206.9 321.163 208.754C321.264 211.447 321.831 214.102 322.838 216.602C323.454 218.19 324.175 219.735 324.995 221.227C320.923 217.82 316.477 214.847 312.44 211.613C312.467 211.546 312.477 211.474 312.469 211.402C312.461 211.33 312.435 211.261 312.395 211.201C312.315 210.855 312.262 210.504 312.239 210.15C312.168 209.141 312.311 207.189 312.803 206.19C314.618 202.586 316.685 198.992 316.471 194.524C316.338 189.319 314.851 180.592 307.59 177.452C302.621 175.424 300.365 179.235 300.344 182.727C299.98 188.811 303.341 195.365 306.1 201.617C307.217 204.163 308.061 206.222 308.945 208.573C307.9 207.601 306.911 206.571 305.981 205.489C303.412 202.447 301.602 199.436 299.438 196.014C297.568 192.894 295.474 189.819 293.604 186.7C293.24 186.05 292.901 185.335 292.537 184.685C292.574 184.649 292.601 184.605 292.619 184.557C292.636 184.509 292.643 184.458 292.638 184.407C292.633 184.356 292.617 184.307 292.591 184.263C292.565 184.219 292.53 184.182 292.487 184.153C289.842 181.307 288.214 178.621 285.843 175.6C282.227 171.021 278.019 166.377 272.693 163.157C270.33 161.698 267.764 161.421 266.893 163.397C266.371 165.003 267.295 166.986 268.185 168.795C269.125 170.474 270.151 172.195 271.507 173.733C273.717 176.244 276.418 178.418 279.226 180.451C282.467 182.74 285.904 184.739 289.496 186.426L293.018 188.078C293.105 188.122 293.203 188.144 293.301 188.142C294.509 190.189 295.915 192.258 297.179 194.294C296.814 194.226 296.454 194.136 296.101 194.025C294.36 193.591 292.669 192.976 291.056 192.192C285.242 189.428 279.819 185.265 273.453 183.392C272.234 183.092 270.963 182.92 270.027 183.345C269.499 183.615 269.089 184.069 268.874 184.621C268.659 185.173 268.654 185.785 268.861 186.341C269.694 188.823 272.334 190.888 274.813 192.445C280.576 196 287.245 198.415 293.273 198.251C295.293 198.214 297.277 198.003 298.963 197.371L299.019 197.36C300.854 200.306 302.744 203.241 305.076 205.969C307.084 208.339 309.501 210.449 311.996 212.363C312.379 212.682 312.776 212.985 313.184 213.271C310.295 212.638 307.609 211.483 304.577 210.156C301.46 208.785 298.348 207.534 295.13 206.424C291.289 205.195 287.069 203.621 283.501 204.203C281.329 204.631 280.882 206.703 282.424 208.685C283.824 210.635 286.157 212.039 288.262 213.368C291.819 215.465 295.68 216.997 299.708 217.909C303.761 218.855 307.795 219.323 311.631 219.109C314.264 218.952 316.977 218.718 319.3 217.9C319.356 217.889 319.325 217.835 319.325 217.835C322.457 220.225 325.532 222.626 328.167 225.235C329.781 226.902 331.339 228.579 332.841 230.268C328.868 230.037 324.928 229.402 321.084 228.373C315.644 227.159 308.894 224.82 305.232 227.886C302.973 229.594 303.872 232.965 306.857 235.203C309.725 237.344 313.212 238.161 316.396 238.436C321.33 238.968 325.421 237.441 328.991 235.536C330.53 234.752 332.479 233.707 333.811 233.324C334.187 233.19 334.581 233.113 334.98 233.094L335.314 233.028C336.315 234.153 337.403 235.323 338.46 236.438C338.87 236.838 339.224 237.25 339.603 237.596L339.664 237.704C339.724 237.812 339.81 237.856 339.982 237.942L341.651 239.598C341.645 239.659 341.653 239.722 341.675 239.78C341.696 239.838 341.731 239.891 341.776 239.934C341.902 240.036 342.049 240.109 342.206 240.15C344.897 242.747 347.725 245.257 350.608 247.756C353.075 249.886 355.393 252.181 357.547 254.627C357.664 254.724 357.755 254.887 357.901 255.038C357.926 255.179 357.922 255.322 357.891 255.461C357.539 259.139 358.149 262.986 358.789 266.89C356.444 268.554 352.324 268.042 349.135 268.971C346.918 269.648 345.135 271.321 345.26 273.642C345.339 276.212 347.367 279.06 350.241 280.659C354.182 282.95 357.974 281.001 358.666 278.038C359.305 275.868 359.463 273.612 359.647 271.291C360.233 273.882 360.792 276.537 361.039 279.074C361.431 281.763 361.039 284.486 361.104 287.36C361.179 287.826 361.057 288.271 361.244 288.715C361.543 289.137 362.297 289.049 362.221 288.583C362.04 286.935 362.254 284.668 362.286 282.737C362.248 280.834 362.113 278.934 361.88 277.045C361.503 274.052 360.645 270.974 360.039 267.907L360.101 267.353C360.109 267.324 360.11 267.293 360.104 267.262C360.098 267.232 360.084 267.204 360.065 267.18C360.565 267.081 360.561 266.962 360.896 266.896C362.753 266.35 364.687 266.271 366.742 266.407C366.667 266.602 366.731 266.83 366.625 266.971C366.559 267.405 366.458 267.665 366.412 267.915C365.945 269.51 365.19 270.921 364.465 272.387C363.117 275.058 361.596 278.303 363.851 281.887C367.617 288.06 374.846 287.058 373.301 280.988C372.569 277.585 369.722 273.936 368.641 270.902C368.278 269.59 368.187 268.766 368.502 267.562C368.555 267.248 368.656 266.944 368.802 266.662C370.609 266.908 372.39 267.218 374.252 267.453C375.165 267.572 376.084 267.632 377.005 267.633ZM344.382 193.482C344.159 192.864 343.993 192.235 343.801 191.672C344.256 191.822 344.767 191.963 345.192 192.059C346.245 192.393 346.953 192.554 347.792 193.171L347.823 193.225L347.909 193.268C348.142 193.463 348.293 193.734 348.551 193.863C348.526 193.928 348.556 193.983 348.501 193.993C347.779 196.145 347.167 198.333 346.669 200.548C346.644 200.613 346.674 200.667 346.619 200.678C346.296 198.336 345.296 195.887 344.382 193.482ZM364.961 250.101C365.574 249.981 367.907 250.063 368.474 250.192C369.018 250.272 369.558 250.387 370.088 250.535C369.27 251.895 368.795 253.433 368.703 255.017C368.113 254.431 367.44 253.935 366.705 253.546C365.354 252.731 363.865 252.168 362.313 251.886L362.282 251.831C362.738 251.321 363.194 250.81 363.68 250.354L363.736 250.343C364.131 250.205 364.543 250.124 364.961 250.101ZM381.561 230.176C381.161 227.771 380.469 225.424 379.501 223.186C378.87 221.706 378.163 220.26 377.383 218.853C377.244 218.591 377.084 218.341 376.903 218.105L377.8 217.388C379.92 218.413 381.796 219.667 383.911 221.235C385.069 222.09 386.319 223.106 387.649 224.047C385.659 226.123 383.583 228.155 381.562 230.177L381.561 230.176ZM402.136 195.82C403.713 194.711 405.381 193.738 407.124 192.914C407.483 192.783 407.757 192.609 408.116 192.478C407.482 194.106 406.879 195.788 406.159 197.373C405.439 198.958 404.634 200.499 403.827 202.041C403.782 202.072 403.745 202.112 403.717 202.159C403.69 202.206 403.674 202.258 403.67 202.313C403.62 202.443 403.538 202.519 403.488 202.649C401.685 202.112 399.824 201.792 397.946 201.696C397.046 201.633 396.2 201.559 395.329 201.55C397.603 199.539 399.822 197.539 402.136 195.82V195.82ZM393.546 203.225C395.601 204.023 398.176 205.861 400.852 207.439C400.3 208.329 399.802 209.209 399.221 210.045C398.233 209.504 397.165 209.125 396.058 208.924C393.372 208.402 390.622 208.294 387.904 208.605C389.768 206.854 391.713 205.028 393.546 203.225ZM384.359 211.769C384.558 211.602 384.747 211.425 384.926 211.236C385.296 211.344 385.716 211.321 386.085 211.429C387.502 211.751 388.98 212.182 390.402 212.623C391.965 213.097 394.131 213.873 396.14 214.26C395.102 215.607 393.977 216.91 392.852 218.214C391.436 217.23 389.837 216.583 388.243 216.055C386.791 215.551 385.289 215.202 383.764 215.013C382.777 214.906 381.821 214.854 380.864 214.802C382.085 213.779 383.25 212.768 384.359 211.767V211.769ZM364.884 224.683C365.831 223.173 366.774 221.545 367.291 219.819C367.807 220.74 368.323 221.661 368.924 222.625C367.138 223.887 365.423 225.248 363.789 226.702C364.154 226.028 364.518 225.355 364.883 224.682L364.884 224.683ZM363.25 228.611C365.215 226.75 367.31 225.031 369.52 223.468C371.335 226.16 373.405 228.673 375.7 230.97C376.489 231.717 377.364 232.507 378.179 233.188C378.277 233.277 378.384 233.357 378.497 233.426C377.18 234.828 375.894 236.284 374.607 237.74C374.55 237.721 374.49 237.717 374.431 237.729C374.373 237.74 374.318 237.767 374.273 237.805C374.233 237.824 374.197 237.85 374.169 237.884C374.14 237.917 374.119 237.957 374.108 237.999C374.096 238.042 374.094 238.086 374.101 238.13C374.109 238.173 374.126 238.214 374.151 238.25C373.426 239.054 372.758 239.847 372.003 240.597C371.458 238.299 371.025 235.98 369.918 233.672C368.533 230.758 366.242 228.323 363.25 228.611ZM358.481 251.558C358.191 246.624 357.066 241.855 357.181 237.202C357.196 236.898 357.181 236.54 357.197 236.237C357.789 236.301 357.865 235.444 358.159 235.085C358.499 234.477 358.869 233.923 359.239 233.369C359.749 234.832 360.795 236.369 361.943 237.647C363.531 239.379 365.783 240.197 367.792 241.246C368.176 241.466 368.543 241.715 368.89 241.992C368.92 242.046 369.036 242.144 369.067 242.198C369.153 242.241 369.304 242.512 369.39 242.555C369.504 242.703 369.596 242.868 369.663 243.042C367.617 245.129 365.399 247.129 363.297 249.227C363.482 247.689 363.484 246.134 363.3 244.596C363.144 243.544 362.897 242.33 362.012 241.302C361.364 240.587 360.15 240.406 359.638 240.927C359.096 241.394 359.101 242.175 359.075 242.902C359.16 244.268 359.584 245.688 360.089 247.032C360.515 248.16 360.854 249.32 361.104 250.5C361.172 250.788 361.213 251.082 361.225 251.378C360.394 252.323 359.594 253.323 358.825 254.376C358.728 253.433 358.577 252.5 358.481 251.558H358.481ZM360.794 265.954C360.416 266.038 360.045 266.151 359.685 266.293L359.629 266.304C359.216 263.8 358.874 260.981 358.734 258.964C358.693 258.564 358.694 258.16 358.74 257.76C358.77 257.811 358.812 257.854 358.862 257.886C358.912 257.918 358.969 257.938 359.028 257.944C359.483 258.094 359.808 257.79 359.565 257.357C359.469 257.075 359.429 256.782 359.333 256.501C359.556 256.457 359.718 256.305 359.652 256.077C359.708 256.066 359.708 256.066 359.794 256.11C360.349 256.14 360.899 256.234 361.433 256.388C362.486 256.722 364.378 257.672 365.856 258.103C366.853 258.448 367.981 258.586 368.786 258.368C368.861 259.053 368.993 259.731 369.18 260.395C369.737 262.431 370.664 264.348 371.914 266.05C371.974 266.158 372.091 266.256 372.151 266.364C368.533 265.754 364.07 265.069 360.794 265.954H360.794Z" fill="#DAD8E4"/>
<path fill-rule="evenodd" clip-rule="evenodd" d="M139.996 200.316C117.189 205.702 82.9323 225.279 75.04 189.025C69.6333 164.185 133.84 166.306 147.175 152.543C176.51 122.266 221.661 149.657 202.354 159.39C163.667 178.883 194.706 187.392 139.996 200.316Z" fill="#F0EFF4"/>
<path fill-rule="evenodd" clip-rule="evenodd" d="M314.18 240.8C305.58 253.686 218.969 260.752 207.711 244.918C190.311 220.468 240.422 150.593 240.422 150.593C239.776 147.253 239.655 139.18 242.286 136.029C246.272 131.24 240.343 126.692 244.031 125.659C248.771 124.337 252.569 128.814 260.827 131.054C265.719 132.367 265.036 145.208 260.411 152.396C258.765 154.946 255.62 155.179 255.62 155.179C255.62 155.179 236.29 202.744 240.395 211.854C245.487 223.122 269.73 210.149 306.979 204.891C324.793 202.373 318.919 233.698 314.18 240.8Z" fill="#FFC197"/>
<mask id="mask0_259_790" style="mask-type:luminance" maskUnits="userSpaceOnUse" x="204" y="125" width="116" height="130">
<path d="M314.18 240.8C305.58 253.686 218.969 260.752 207.711 244.918C190.311 220.468 240.422 150.593 240.422 150.593C239.776 147.253 239.655 139.18 242.286 136.029C246.272 131.24 240.343 126.692 244.031 125.659C248.771 124.337 252.569 128.814 260.827 131.054C265.719 132.367 265.036 145.208 260.411 152.396C258.765 154.946 255.62 155.179 255.62 155.179C255.62 155.179 236.29 202.744 240.395 211.854C245.487 223.122 269.73 210.149 306.979 204.891C324.793 202.373 318.919 233.698 314.18 240.8Z" fill="white"/>
</mask>
<g mask="url(#mask0_259_790)">
<path fill-rule="evenodd" clip-rule="evenodd" d="M266.263 205.988C269.523 208.488 270.293 214.409 270.846 218.113C271.433 222.027 271.254 226.046 269.946 229.819C267.979 235.499 263.899 240.144 262.223 245.927C260.977 250.23 261.275 255.079 262.734 259.302C263.414 261.277 264.443 263.113 265.772 264.724C273.652 274.221 289.877 270.676 299.827 267.337C311.024 263.579 322.084 256.418 327.862 245.8C336.826 229.336 328.695 209.028 313.252 199.898C307.127 196.319 300.229 194.271 293.144 193.927C284.729 193.485 276.088 195.081 268.817 199.435L266.263 205.988Z" fill="#FE9400"/>
<path fill-rule="evenodd" clip-rule="evenodd" d="M233.503 153.665C227.909 164.222 220.692 187.307 216.927 198.573C212.123 213.039 210.209 224.004 217.593 236.957C226.328 252.325 255.488 246.319 269.755 242.371C272.904 241.498 276.013 240.487 279.073 239.343C283.39 237.764 287.582 235.863 291.615 233.656C299.934 229.006 306.881 222.617 313.099 215.451C314.888 213.397 316.49 211.151 318.382 209.197C318.944 208.613 319.797 207.752 320.712 207.858C322.251 208.035 322.605 210.874 322.812 211.978C323.602 216.553 323.54 221.333 323.228 225.948C322.001 244.189 316.073 262.41 299.767 272.373C289.701 278.528 277.159 280.441 265.678 282.126C254.218 283.806 242.155 285.326 230.55 284.268C209.834 282.38 187.975 273.378 176.64 255.007C163.537 233.725 169.569 205.283 180.322 184.35C183.005 179.131 186.104 174.113 189.785 169.539C196.96 160.627 206.569 152.514 217.905 149.793L233.503 153.665Z" fill="black" fill-opacity="0.1"/>
</g>
<path fill-rule="evenodd" clip-rule="evenodd" d="M128.436 128.235C127.415 126.628 125.475 125.475 123.25 125.15C121.058 124.798 118.815 125.303 116.985 126.56L22.562 194.528C20.1143 196.29 19.4403 199.151 20.9263 201.491L139.756 388.54C140.792 390.171 142.716 391.3 144.956 391.649C147.148 392.001 149.392 391.497 151.221 390.239L245.644 322.271C248.092 320.509 248.766 317.648 247.279 315.309L128.436 128.235ZM127.017 128.81L245.861 315.885C247.017 317.704 246.496 319.939 244.57 321.326L150.148 389.293C148.714 390.273 146.962 390.673 145.245 390.411C143.487 390.161 141.986 389.245 141.175 387.969L22.3455 200.917C21.1745 199.074 21.6955 196.839 23.6205 195.452L118.043 127.485C119.476 126.505 121.229 126.105 122.946 126.367C124.72 126.639 126.206 127.533 127.017 128.809V128.81Z" fill="#FF9900"/>
<path fill-rule="evenodd" clip-rule="evenodd" d="M146.709 126.528C146.536 126.252 146.308 126.015 146.038 125.832C145.768 125.65 145.464 125.526 145.143 125.468C144.829 125.408 144.505 125.412 144.192 125.478C143.879 125.544 143.582 125.672 143.318 125.855L42.6848 198.292C42.192 198.65 41.8549 199.183 41.7424 199.781C41.63 200.38 41.7508 200.999 42.08 201.511L159.747 386.732C159.918 387.005 160.144 387.238 160.411 387.417C160.678 387.596 160.98 387.716 161.297 387.769C161.612 387.836 161.937 387.835 162.251 387.769C162.566 387.702 162.863 387.571 163.124 387.383L263.756 314.945C264.249 314.594 264.589 314.066 264.704 313.471C264.82 312.877 264.702 312.26 264.375 311.75L146.709 126.528Z" fill="#FF9900"/>
<path fill-rule="evenodd" clip-rule="evenodd" d="M223.025 272.18C221.35 269.544 218.236 267.674 214.585 267.137C210.933 266.601 207.186 267.443 204.427 269.429L151.848 307.275C145.148 312.097 143.343 319.881 147.416 326.292C149.091 328.928 152.203 330.796 155.854 331.332C159.505 331.868 163.253 331.027 165.999 329.05L218.59 291.194C225.276 286.381 227.097 278.591 223.025 272.18ZM221.891 272.632L221.892 272.635C225.706 278.637 224 285.933 217.738 290.441L165.147 328.297C162.697 330.061 159.342 330.818 156.082 330.338C152.835 329.849 150.043 328.191 148.548 325.838C144.735 319.836 146.44 312.54 152.703 308.032L205.294 270.175C207.744 268.411 211.098 267.654 214.344 268.141C217.603 268.621 220.396 270.279 221.891 272.632H221.891Z" fill="white"/>
<path fill-rule="evenodd" clip-rule="evenodd" d="M265.32 255.38C264.263 253.717 262.877 252.287 261.247 251.178C259.617 250.07 257.779 249.306 255.843 248.933C253.908 248.56 251.917 248.587 249.992 249.011C248.067 249.435 246.249 250.248 244.65 251.4L177.366 299.831C173.968 302.276 171.634 305.928 170.842 310.039C170.05 314.149 170.861 318.407 173.107 321.939C174.164 323.603 175.55 325.034 177.179 326.143C178.809 327.252 180.648 328.017 182.583 328.389C184.519 328.762 186.511 328.735 188.435 328.311C190.36 327.886 192.178 327.072 193.777 325.92L261.061 277.487C264.456 275.041 266.788 271.39 267.58 267.281C268.372 263.172 267.564 258.916 265.322 255.383L265.32 255.38Z" fill="black"/>
<path fill-rule="evenodd" clip-rule="evenodd" d="M187.557 218.152C187.129 217.48 186.57 216.902 185.911 216.454C185.253 216.006 184.51 215.698 183.728 215.548C182.946 215.397 182.141 215.409 181.364 215.581C180.586 215.753 179.852 216.082 179.206 216.548L113.427 263.898C112.063 264.879 111.125 266.344 110.806 267.994C110.488 269.644 110.813 271.353 111.714 272.772C112.14 273.442 112.699 274.019 113.356 274.466C114.013 274.914 114.754 275.222 115.535 275.373C116.315 275.524 117.118 275.514 117.895 275.344C118.671 275.174 119.405 274.847 120.05 274.383L185.843 227.025C187.208 226.045 188.145 224.579 188.464 222.93C188.783 221.28 188.458 219.571 187.557 218.153L187.557 218.152ZM201.553 240.178C201.126 239.506 200.566 238.928 199.908 238.48C199.249 238.033 198.506 237.724 197.724 237.574C196.942 237.424 196.138 237.435 195.36 237.607C194.583 237.779 193.849 238.108 193.203 238.574L127.423 285.925C126.059 286.906 125.121 288.371 124.803 290.021C124.484 291.671 124.809 293.38 125.71 294.798C126.136 295.469 126.695 296.046 127.352 296.493C128.009 296.941 128.751 297.249 129.531 297.4C130.311 297.551 131.114 297.541 131.891 297.371C132.667 297.201 133.401 296.874 134.046 296.41L199.839 249.051C201.203 248.071 202.141 246.606 202.46 244.956C202.779 243.306 202.454 241.597 201.553 240.179V240.178Z" fill="white"/>
<path d="M194.939 308.117L196.776 306.601C196.949 306.775 197.158 306.909 197.388 306.993C197.618 307.077 197.863 307.109 198.107 307.088C198.705 306.995 199.267 306.746 199.738 306.365C200.255 306.035 200.686 305.588 200.997 305.059C201.194 304.646 201.216 304.308 201.059 304.059C201.009 303.98 200.94 303.914 200.858 303.867C200.777 303.82 200.685 303.793 200.591 303.79C200.28 303.798 199.974 303.873 199.694 304.01C199.437 304.118 198.846 304.401 197.927 304.843C196.757 305.427 195.874 305.74 195.273 305.774C194.437 305.834 193.856 305.595 193.513 305.055C193.287 304.67 193.215 304.215 193.311 303.78C193.44 303.201 193.708 302.663 194.093 302.211C194.609 301.596 195.206 301.054 195.868 300.598C197.098 299.713 198.141 299.233 198.998 299.158C199.854 299.083 200.49 299.361 200.914 299.958L198.991 301.433C198.858 301.299 198.697 301.196 198.519 301.134C198.341 301.073 198.151 301.052 197.964 301.076C197.452 301.186 196.973 301.415 196.567 301.746C196.088 302.059 195.683 302.473 195.382 302.96C195.311 303.05 195.269 303.159 195.26 303.274C195.251 303.388 195.276 303.503 195.332 303.603C195.396 303.686 195.483 303.75 195.582 303.786C195.681 303.822 195.789 303.829 195.892 303.806C196.236 303.765 196.937 303.492 197.988 302.956C198.774 302.541 199.594 302.192 200.438 301.915C200.928 301.758 201.45 301.729 201.954 301.829C202.404 301.944 202.789 302.232 203.027 302.631C203.283 303.062 203.365 303.575 203.256 304.065C203.129 304.697 202.838 305.284 202.412 305.768C201.842 306.444 201.184 307.039 200.455 307.538C199.215 308.431 198.145 308.917 197.232 308.995C196.807 309.044 196.377 308.989 195.978 308.837C195.579 308.684 195.222 308.437 194.939 308.117ZM202.379 297.835L201.614 296.632L203.485 295.285L204.25 296.489L202.379 297.835ZM205.932 303.428L202.8 298.5L204.671 297.153L207.802 302.083L205.932 303.428ZM209.754 301.142L212.007 299.792C212.062 299.861 212.134 299.915 212.217 299.946C212.299 299.978 212.389 299.986 212.476 299.97C212.819 299.888 213.138 299.729 213.41 299.504C213.795 299.249 214.134 298.931 214.412 298.563C214.528 298.389 214.583 298.181 214.57 297.972C214.525 297.731 214.426 297.502 214.279 297.305L213.824 296.588C213.595 297.534 213.021 298.361 212.215 298.907C211.26 299.594 210.327 299.853 209.424 299.69C209.07 299.63 208.734 299.493 208.438 299.289C208.143 299.086 207.895 298.82 207.712 298.511C207.459 298.151 207.297 297.735 207.239 297.299C207.181 296.862 207.229 296.418 207.379 296.004C207.7 295.112 208.299 294.346 209.088 293.82C209.843 293.224 210.803 292.95 211.759 293.057L211.321 292.367L213.071 291.108L215.882 295.533C216.186 295.968 216.399 296.461 216.505 296.981C216.549 297.354 216.498 297.732 216.358 298.081C216.168 298.485 215.913 298.856 215.604 299.178C215.154 299.654 214.656 300.082 214.118 300.453C212.918 301.317 211.974 301.79 211.29 301.857C210.612 301.932 210.127 301.752 209.846 301.31C209.811 301.256 209.78 301.2 209.754 301.142ZM209.589 297.056C209.92 297.578 210.304 297.856 210.757 297.892C211.228 297.914 211.691 297.768 212.065 297.479C212.494 297.187 212.818 296.764 212.988 296.273C213.063 296.031 213.081 295.774 213.04 295.524C213 295.274 212.901 295.036 212.753 294.83C212.428 294.317 212.032 294.046 211.58 294.011C211.079 293.995 210.589 294.156 210.195 294.466C209.782 294.745 209.474 295.153 209.317 295.627C209.253 295.87 209.244 296.125 209.291 296.372C209.338 296.62 209.44 296.853 209.589 297.056ZM224.487 290.072L222.616 291.419L221.02 288.905C220.682 288.374 220.422 288.059 220.24 287.958C220.049 287.864 219.832 287.834 219.623 287.873C219.356 287.928 219.104 288.043 218.888 288.209C218.58 288.423 218.322 288.701 218.132 289.024C217.965 289.284 217.89 289.593 217.918 289.9C218.031 290.344 218.227 290.763 218.495 291.135L219.912 293.365L218.041 294.712L214.91 289.783L216.648 288.531L217.109 289.256C217.391 288.232 218.029 287.343 218.909 286.748C219.289 286.471 219.704 286.246 220.144 286.079C220.471 285.956 220.82 285.902 221.169 285.921C221.428 285.951 221.675 286.05 221.883 286.206C222.146 286.436 222.368 286.707 222.542 287.009L224.487 290.072ZM225.853 279.184L227.825 277.765L230.164 281.446C230.391 281.832 230.656 282.194 230.955 282.528C231.102 282.636 231.27 282.713 231.449 282.753C231.627 282.793 231.812 282.796 231.992 282.761C233.042 282.482 233.955 281.829 234.56 280.926C234.733 280.638 234.786 280.295 234.707 279.968C234.537 279.542 234.319 279.137 234.057 278.759L231.668 274.998L233.64 273.578L235.906 277.145C236.423 277.959 236.744 278.58 236.845 278.996C236.957 279.413 236.943 279.854 236.806 280.263C236.622 280.771 236.35 281.243 236.001 281.655C235.487 282.243 234.902 282.763 234.259 283.205C233.324 283.878 232.577 284.313 231.988 284.505C231.51 284.694 230.997 284.778 230.484 284.75C230.11 284.731 229.748 284.607 229.441 284.391C228.934 283.93 228.499 283.395 228.152 282.804L225.853 279.184ZM236.84 273.997L238.59 272.738L239.051 273.463C239.134 273.009 239.316 272.579 239.584 272.202C239.887 271.751 240.272 271.36 240.719 271.05C241.437 270.489 242.328 270.194 243.24 270.215C244.101 270.24 244.785 270.665 245.29 271.46C245.542 271.828 245.705 272.249 245.767 272.69C245.828 273.131 245.787 273.58 245.646 274.003C245.342 274.897 244.755 275.668 243.974 276.199C243.622 276.46 243.231 276.663 242.816 276.801C242.374 276.929 241.915 276.986 241.455 276.968L243.035 279.455L241.164 280.801L236.84 273.997ZM240.203 275.045C240.557 275.603 240.978 275.893 241.462 275.931C241.966 275.963 242.464 275.811 242.864 275.503C243.271 275.226 243.572 274.819 243.716 274.348C243.849 273.904 243.738 273.403 243.391 272.855C243.059 272.333 242.675 272.055 242.216 272.01C241.731 271.988 241.255 272.138 240.871 272.435C240.446 272.72 240.128 273.139 239.969 273.626C239.897 273.865 239.881 274.117 239.921 274.363C239.962 274.609 240.058 274.843 240.203 275.045Z" fill="white"/>
<path d="M140.991 224.881C153.562 213.076 155.818 195.056 146.03 184.633C136.241 174.209 118.116 175.329 105.545 187.134C92.9737 198.939 90.7177 216.959 100.506 227.382C110.294 237.806 128.42 236.686 140.991 224.881Z" fill="white"/>
<path fill-rule="evenodd" clip-rule="evenodd" d="M120.655 218.98C117.007 218.925 113.719 217.325 111.786 214.282C108.282 208.766 110.569 200.585 116.906 196.023C123.243 191.461 131.256 192.232 134.76 197.748C137.026 201.316 136.841 206.006 134.749 210.098C143.34 207.207 151.027 208.64 152.965 213.977C155.233 220.243 148.702 229.541 138.4 234.72C128.098 239.899 117.861 239.025 115.593 232.759C114.178 228.775 116.275 223.575 120.655 218.98Z" fill="#FF9900"/>
<path fill-rule="evenodd" clip-rule="evenodd" d="M306.389 345.784C308.594 304.187 293.972 267.984 295.303 244.204C296.156 229.119 289.625 206.729 314.417 203.102C335.673 199.992 361.942 205.61 367.121 211.33C377.603 222.869 373.797 285.435 363.835 293.969C343.868 306.716 321.988 333.047 306.389 345.784Z" fill="#FE9400"/>
<mask id="mask1_259_790" style="mask-type:luminance" maskUnits="userSpaceOnUse" x="295" y="202" width="79" height="144">
<path d="M306.389 345.784C308.594 304.187 293.972 267.984 295.303 244.204C296.156 229.119 289.625 206.729 314.417 203.102C335.673 199.992 361.942 205.61 367.121 211.33C377.603 222.869 373.797 285.435 363.835 293.969C343.868 306.716 321.988 333.047 306.389 345.784Z" fill="white"/>
</mask>
<g mask="url(#mask1_259_790)">
<path fill-rule="evenodd" clip-rule="evenodd" d="M349.377 234.187C347.651 236.492 346.673 239.343 345.862 242.072C343.72 249.108 343.637 256.13 344.614 263.37C345.571 270.52 347.464 277.927 346.174 285.158C345.197 290.508 342.327 294.931 339.519 299.474C332.469 310.899 328.308 314.651 318.762 323.122C313.333 327.922 302.747 347.654 304.348 355.333C305.451 360.688 313.916 355.488 317.098 353.852C325.73 349.403 333.446 343.149 341.869 338.263C353.891 331.273 367.41 325.235 376.416 314.233C388.375 299.608 389.81 277.494 385.214 259.763C383.03 251.323 379.182 242.49 371.591 237.648L349.377 234.187Z" fill="black" fill-opacity="0.1"/>
</g>
<path fill-rule="evenodd" clip-rule="evenodd" d="M364.664 212.083C378.954 218.116 408.054 300.219 391.327 315.515C374.6 330.811 264.322 303.865 264.322 303.865C261.162 305.127 253.275 306.761 249.667 304.766C244.236 301.753 247.578 295.024 245.871 291.596C243.683 287.189 228.051 297.106 228.681 288.569C229.073 283.521 254.416 280.696 262.343 283.894C265.178 285.034 265.996 288.081 265.996 288.081C265.996 288.081 344.541 295.356 352.719 289.613C362.832 282.497 337.483 256.843 341.428 227.845C343.855 210.02 356.818 208.764 364.664 212.083Z" fill="#FFC197"/>
<mask id="mask2_259_790" style="mask-type:luminance" maskUnits="userSpaceOnUse" x="228" y="210" width="169" height="111">
<path d="M364.664 212.083C378.954 218.116 408.054 300.219 391.327 315.515C374.6 330.811 264.322 303.865 264.322 303.865C261.162 305.127 253.275 306.761 249.667 304.766C244.236 301.753 247.578 295.024 245.871 291.596C243.683 287.189 228.051 297.106 228.681 288.569C229.073 283.521 254.416 280.696 262.343 283.894C265.178 285.034 265.996 288.081 265.996 288.081C265.996 288.081 344.541 295.356 352.719 289.613C362.832 282.497 337.483 256.843 341.428 227.845C343.855 210.02 356.818 208.764 364.664 212.083Z" fill="white"/>
</mask>
<g mask="url(#mask2_259_790)">
<path fill-rule="evenodd" clip-rule="evenodd" d="M342.103 265.306C343.947 261.634 349.618 259.767 353.153 258.529C356.888 257.219 360.868 256.64 364.82 257.216C370.768 258.082 376.096 261.219 382.091 261.781C386.551 262.197 391.258 260.995 395.133 258.769C396.945 257.731 398.555 256.376 399.888 254.768C407.738 245.247 401.213 229.975 396.067 220.828C390.275 210.534 381.167 201.014 369.652 197.33C351.8 191.614 333.377 203.411 327.307 220.292C324.94 226.979 324.222 234.139 325.213 241.163C326.358 249.512 329.547 257.699 335.188 264.025L342.103 265.306Z" fill="#FE9400"/>
</g>
<path fill-rule="evenodd" clip-rule="evenodd" d="M317.794 202.54C317.794 202.54 326.176 196.34 324.22 189.813C323.72 188.099 319.936 192.929 316.525 190.838C311.866 187.963 310.743 171.394 316.005 162.773C319.27 157.429 330.751 154.224 334.495 157.864C338.239 161.504 339.715 177.018 338.426 184.614C336.388 196.732 347.432 204.021 347.432 204.021C347.432 204.021 329.087 218.703 324.47 230.889C323.118 234.468 317.794 202.54 317.794 202.54Z" fill="#FFC197"/>
<mask id="mask3_259_790" style="mask-type:luminance" maskUnits="userSpaceOnUse" x="312" y="156" width="36" height="76">
<path d="M317.794 202.54C317.794 202.54 326.176 196.34 324.22 189.813C323.72 188.099 319.936 192.929 316.525 190.838C311.866 187.963 310.743 171.394 316.005 162.773C319.27 157.429 330.751 154.224 334.495 157.864C338.239 161.504 339.715 177.018 338.426 184.614C336.388 196.732 347.432 204.021 347.432 204.021C347.432 204.021 329.087 218.703 324.47 230.889C323.118 234.468 317.794 202.54 317.794 202.54Z" fill="white"/>
</mask>
<g mask="url(#mask3_259_790)">
<path fill-rule="evenodd" clip-rule="evenodd" d="M322.034 190.705C322.699 190.345 323.24 189.611 323.739 189.062C324.886 187.833 325.943 186.523 326.901 185.142C327.254 184.592 327.608 184.031 328.003 183.488C328.086 183.351 328.315 182.951 328.523 182.951C328.731 182.951 328.606 183.638 328.586 183.726C328.447 184.687 328.224 185.633 327.92 186.555C326.776 190.328 324.426 193.152 321.909 196.087L322.034 190.705Z" fill="black" fill-opacity="0.1"/>
</g>
<path fill-rule="evenodd" clip-rule="evenodd" d="M318.563 169.774C317.003 169.68 315.548 168.769 314.341 167.837C309.703 164.264 310.016 158.047 314.05 154.129C316.483 151.777 321.475 150.206 323.805 153.518C324.553 152.457 326.113 152.007 327.299 151.731C328.261 151.475 329.26 151.388 330.252 151.473C337.032 152.386 335.452 160.907 340.61 163.632C342.294 162.548 344.146 166.09 344.478 167.17C345.622 170.924 345.123 177.34 340.797 178.838C340.422 179.846 339.466 180.556 338.613 181.138C336.263 182.754 332.477 183.91 329.857 182.24C329.542 182.036 329.255 181.791 329.004 181.512C327.132 179.43 329.108 177.057 329.732 174.894C330.065 173.754 330.335 172.327 329.337 171.431C328.526 170.728 327.715 171.127 327.07 171.806C326.092 172.84 325.552 174.468 323.992 174.76C321.745 175.176 319.562 173.017 318.854 171.502C318.709 171.182 318.563 169.774 318.563 169.774Z" fill="black"/>
<path fill-rule="evenodd" clip-rule="evenodd" d="M304.222 153.246C304.223 152.515 304.019 151.798 303.633 151.177C303.246 150.556 302.694 150.056 302.038 149.734L218.5 108.65C217.903 108.359 217.241 108.224 216.578 108.258C215.914 108.292 215.27 108.494 214.706 108.845C214.142 109.196 213.676 109.685 213.353 110.265C213.029 110.846 212.859 111.499 212.857 112.163V125.988C212.858 126.719 213.064 127.434 213.45 128.055C213.835 128.675 214.387 129.176 215.041 129.5L298.595 170.592C299.192 170.884 299.853 171.02 300.517 170.986C301.181 170.951 301.825 170.748 302.388 170.396C302.952 170.043 303.416 169.552 303.737 168.97C304.057 168.388 304.224 167.734 304.222 167.069L304.222 153.246Z" fill="#FF9900"/>
<path fill-rule="evenodd" clip-rule="evenodd" d="M224.641 129.122L222.863 127.111L225.176 124.761L221.087 121.667L221.634 119.925L225.723 123.018L225.506 118.753L227.621 119.687L227.837 123.952L231.793 124.409L232.545 126.725L228.59 126.267L231.253 130.814L229.603 131.312L226.953 126.769L224.641 129.122ZM239.355 136.35L237.578 134.338L239.891 131.988L235.802 128.895L236.348 127.153L240.437 130.246L240.221 125.982L242.336 126.915L242.552 131.18L246.507 131.638L247.26 133.953L243.304 133.495L245.967 138.043L244.317 138.541L241.667 133.998L239.355 136.35ZM255.122 143.382L253.344 141.371L255.657 139.021L251.568 135.928L252.115 134.186L256.204 137.279L255.987 133.014L258.102 133.948L258.318 138.212L262.274 138.67L263.026 140.986L259.071 140.528L261.734 145.075L260.084 145.573L257.434 141.03L255.122 143.382ZM270.517 151.676L268.74 149.665L271.053 147.315L266.964 144.221L267.511 142.48L271.599 145.573L271.383 141.308L273.498 142.242L273.714 146.506L277.669 146.964L278.422 149.279L274.466 148.822L277.129 153.369L275.479 153.867L272.829 149.324L270.517 151.676ZM286.764 159.666L284.986 157.655L287.299 155.305L283.21 152.212L283.757 150.47L287.846 153.563L287.629 149.298L289.744 150.232L289.96 154.496L293.915 154.954L294.668 157.27L290.713 156.812L293.376 161.359L291.726 161.857L289.076 157.314L286.764 159.666Z" fill="white"/>
<path fill-rule="evenodd" clip-rule="evenodd" d="M251.703 153.034C253.003 151.559 260.809 148.006 262.858 147.721C266.125 147.241 269.201 149.381 268.069 152.488C267.619 153.684 257.731 156.431 255.012 156.528C253.898 156.563 251.184 153.619 251.703 153.034Z" fill="#FFC197"/>
</svg>
