<svg width="90" height="50" viewBox="0 0 90 50" fill="none" xmlns="http://www.w3.org/2000/svg">
<g filter="url(#filter0_d_571_621)">
<path d="M13.256 32.872C13.0213 32.936 12.6587 33 12.168 33.064C11.6773 33.128 11.1973 33.16 10.728 33.16C9.74667 33.16 9.01067 33 8.52 32.68C8.02933 32.3387 7.784 31.6347 7.784 30.568V26.248C7.25067 25.4587 6.67467 24.584 6.056 23.624C5.43733 22.664 4.82933 21.6827 4.232 20.68C3.63467 19.6773 3.08 18.696 2.568 17.736C2.056 16.7547 1.64 15.8587 1.32 15.048C1.59733 14.664 1.97067 14.312 2.44 13.992C2.93067 13.672 3.528 13.512 4.232 13.512C5.064 13.512 5.736 13.6827 6.248 14.024C6.78133 14.3653 7.28267 15.0053 7.752 15.944L10.408 21.288H10.6C10.8987 20.6267 11.1547 20.0293 11.368 19.496C11.6027 18.9413 11.8267 18.3973 12.04 17.864C12.2533 17.3093 12.4773 16.744 12.712 16.168C12.9467 15.5707 13.2133 14.888 13.512 14.12C13.896 13.928 14.3227 13.7787 14.792 13.672C15.2613 13.5653 15.7093 13.512 16.136 13.512C16.8827 13.512 17.512 13.7147 18.024 14.12C18.5573 14.504 18.824 15.0907 18.824 15.88C18.824 16.136 18.7707 16.4453 18.664 16.808C18.5573 17.1707 18.312 17.7253 17.928 18.472C17.544 19.1973 16.9787 20.1893 16.232 21.448C15.5067 22.7067 14.5147 24.3493 13.256 26.376V32.872ZM65.3313 23.76C65.3313 23.14 65.1513 22.69 64.7913 22.41C64.4513 22.11 63.9813 21.96 63.3813 21.96C62.9813 21.96 62.5813 22.01 62.1813 22.11C61.8013 22.21 61.4713 22.36 61.1913 22.56V32.97C60.9913 33.03 60.6713 33.09 60.2313 33.15C59.8113 33.21 59.3713 33.24 58.9113 33.24C58.4713 33.24 58.0713 33.21 57.7113 33.15C57.3713 33.09 57.0813 32.97 56.8413 32.79C56.6013 32.61 56.4113 32.37 56.2713 32.07C56.1513 31.75 56.0913 31.34 56.0913 30.84V21.84C56.0913 21.3 56.2013 20.86 56.4213 20.52C56.6613 20.18 56.9813 19.87 57.3813 19.59C58.0613 19.11 58.9113 18.72 59.9313 18.42C60.9713 18.12 62.1213 17.97 63.3813 17.97C65.6413 17.97 67.3813 18.47 68.6013 19.47C69.8213 20.45 70.4313 21.82 70.4313 23.58V32.97C70.2313 33.03 69.9113 33.09 69.4713 33.15C69.0513 33.21 68.6113 33.24 68.1513 33.24C67.7113 33.24 67.3113 33.21 66.9513 33.15C66.6113 33.09 66.3213 32.97 66.0813 32.79C65.8413 32.61 65.6513 32.37 65.5113 32.07C65.3913 31.75 65.3313 31.34 65.3313 30.84V23.76ZM76.1175 29.032C75.8828 28.4987 75.6268 27.9013 75.3495 27.24C75.0935 26.5787 74.8162 25.8213 74.5175 24.968C74.2402 24.1147 73.9415 23.144 73.6215 22.056C73.3228 20.9467 73.0028 19.6773 72.6615 18.248C72.9602 17.9493 73.3548 17.6933 73.8455 17.48C74.3575 17.2453 74.9122 17.128 75.5095 17.128C76.2562 17.128 76.8748 17.288 77.3655 17.608C77.8562 17.9067 78.2188 18.4827 78.4535 19.336L80.9815 28.136H81.1095C81.3655 27.4107 81.6108 26.6213 81.8455 25.768C82.1015 24.9147 82.3468 24.04 82.5815 23.144C82.8162 22.2267 83.0295 21.32 83.2215 20.424C83.4348 19.5067 83.6162 18.6107 83.7655 17.736C84.5335 17.3307 85.3762 17.128 86.2935 17.128C87.0402 17.128 87.6588 17.288 88.1495 17.608C88.6402 17.928 88.8855 18.4827 88.8855 19.272C88.8855 19.848 88.8108 20.52 88.6615 21.288C88.5122 22.0347 88.3095 22.8347 88.0535 23.688C87.8188 24.5413 87.5308 25.4267 87.1895 26.344C86.8695 27.24 86.5282 28.1253 86.1655 29C85.8028 29.8747 85.4295 30.7067 85.0455 31.496C84.6615 32.264 84.2882 32.9573 83.9255 33.576C83.3282 34.6213 82.7735 35.4747 82.2615 36.136C81.7495 36.7973 81.2588 37.3093 80.7895 37.672C80.3202 38.056 79.8508 38.312 79.3815 38.44C78.9122 38.5893 78.4215 38.664 77.9095 38.664C77.0135 38.664 76.2882 38.3973 75.7335 37.864C75.1788 37.3307 74.8482 36.6373 74.7415 35.784C75.4242 35.2507 76.1068 34.6533 76.7895 33.992C77.4722 33.352 78.0908 32.6907 78.6455 32.008C78.2828 31.9013 77.8882 31.656 77.4615 31.272C77.0562 30.8667 76.6082 30.12 76.1175 29.032Z" fill="#FF9900"/>
<path d="M36.025 25.71C36.025 26.95 35.835 28.06 35.455 29.04C35.075 30 34.535 30.81 33.835 31.47C33.155 32.13 32.335 32.63 31.375 32.97C30.415 33.31 29.345 33.48 28.165 33.48C26.985 33.48 25.915 33.3 24.955 32.94C23.995 32.58 23.165 32.07 22.465 31.41C21.785 30.73 21.255 29.91 20.875 28.95C20.495 27.99 20.305 26.91 20.305 25.71C20.305 24.53 20.495 23.46 20.875 22.5C21.255 21.54 21.785 20.73 22.465 20.07C23.165 19.39 23.995 18.87 24.955 18.51C25.915 18.15 26.985 17.97 28.165 17.97C29.345 17.97 30.415 18.16 31.375 18.54C32.335 18.9 33.155 19.42 33.835 20.1C34.535 20.76 35.075 21.57 35.455 22.53C35.835 23.49 36.025 24.55 36.025 25.71ZM25.525 25.71C25.525 26.93 25.755 27.87 26.215 28.53C26.695 29.17 27.355 29.49 28.195 29.49C29.035 29.49 29.675 29.16 30.115 28.5C30.575 27.84 30.805 26.91 30.805 25.71C30.805 24.51 30.575 23.59 30.115 22.95C29.655 22.29 29.005 21.96 28.165 21.96C27.325 21.96 26.675 22.29 26.215 22.95C25.755 23.59 25.525 24.51 25.525 25.71ZM53.6031 25.71C53.6031 26.95 53.4131 28.06 53.0331 29.04C52.6531 30 52.1131 30.81 51.4131 31.47C50.7331 32.13 49.9131 32.63 48.9531 32.97C47.9931 33.31 46.9231 33.48 45.7431 33.48C44.5631 33.48 43.4931 33.3 42.5331 32.94C41.5731 32.58 40.7431 32.07 40.0431 31.41C39.3631 30.73 38.8331 29.91 38.4531 28.95C38.0731 27.99 37.8831 26.91 37.8831 25.71C37.8831 24.53 38.0731 23.46 38.4531 22.5C38.8331 21.54 39.3631 20.73 40.0431 20.07C40.7431 19.39 41.5731 18.87 42.5331 18.51C43.4931 18.15 44.5631 17.97 45.7431 17.97C46.9231 17.97 47.9931 18.16 48.9531 18.54C49.9131 18.9 50.7331 19.42 51.4131 20.1C52.1131 20.76 52.6531 21.57 53.0331 22.53C53.4131 23.49 53.6031 24.55 53.6031 25.71ZM43.1031 25.71C43.1031 26.93 43.3331 27.87 43.7931 28.53C44.2731 29.17 44.9331 29.49 45.7731 29.49C46.6131 29.49 47.2531 29.16 47.6931 28.5C48.1531 27.84 48.3831 26.91 48.3831 25.71C48.3831 24.51 48.1531 23.59 47.6931 22.95C47.2331 22.29 46.5831 21.96 45.7431 21.96C44.9031 21.96 44.2531 22.29 43.7931 22.95C43.3331 23.59 43.1031 24.51 43.1031 25.71Z" fill="black"/>
<path d="M24 14.0921C36.4 8.49205 54.3333 11.7587 50.5 14.092" stroke="#FF9900" stroke-width="2" stroke-linecap="round"/>
</g>
<defs>
<filter id="filter0_d_571_621" x="0" y="-1" width="90" height="52" filterUnits="userSpaceOnUse" color-interpolation-filters="sRGB">
<feFlood flood-opacity="0" result="BackgroundImageFix"/>
<feColorMatrix in="SourceAlpha" type="matrix" values="0 0 0 0 0 0 0 0 0 0 0 0 0 0 0 0 0 0 127 0" result="hardAlpha"/>
<feOffset/>
<feGaussianBlur stdDeviation="0.5"/>
<feComposite in2="hardAlpha" operator="out"/>
<feColorMatrix type="matrix" values="0 0 0 0 1 0 0 0 0 0.71332 0 0 0 0 0.283301 0 0 0 0.5 0"/>
<feBlend mode="normal" in2="BackgroundImageFix" result="effect1_dropShadow_571_621"/>
<feBlend mode="normal" in="SourceGraphic" in2="effect1_dropShadow_571_621" result="shape"/>
</filter>
</defs>
</svg>
