<svg width="62" height="48" viewBox="0 0 62 48" fill="none" xmlns="http://www.w3.org/2000/svg">
<g clip-path="url(#clip0_574_1354)">
<path d="M24 16C40.0582 5.1334 63.2821 11.4723 58.3179 16" stroke="#FF9900" stroke-width="6" stroke-linecap="round"/>
<path d="M37.76 26.656C37.76 25.248 37.552 24.16 37.136 23.392C36.736 22.624 36.16 22.24 35.408 22.24C34.656 22.24 34.08 22.624 33.68 23.392C33.296 24.16 33.104 25.248 33.104 26.656C33.104 28.064 33.296 29.16 33.68 29.944C34.08 30.712 34.656 31.096 35.408 31.096C36.16 31.096 36.736 30.712 37.136 29.944C37.552 29.16 37.76 28.064 37.76 26.656ZM41.864 26.656C41.864 27.888 41.704 28.984 41.384 29.944C41.064 30.904 40.616 31.712 40.04 32.368C39.48 33.008 38.8 33.496 38 33.832C37.216 34.168 36.36 34.336 35.432 34.336C34.488 34.336 33.616 34.168 32.816 33.832C32.032 33.496 31.352 33.008 30.776 32.368C30.216 31.712 29.776 30.904 29.456 29.944C29.152 28.984 29 27.888 29 26.656C29 25.424 29.152 24.336 29.456 23.392C29.776 22.432 30.216 21.632 30.776 20.992C31.352 20.336 32.032 19.84 32.816 19.504C33.616 19.168 34.488 19 35.432 19C36.36 19 37.216 19.168 38 19.504C38.8 19.84 39.48 20.336 40.04 20.992C40.616 21.632 41.064 22.432 41.384 23.392C41.704 24.336 41.864 25.424 41.864 26.656ZM52.3147 26.656C52.3147 25.248 52.1067 24.16 51.6907 23.392C51.2907 22.624 50.7147 22.24 49.9627 22.24C49.2107 22.24 48.6347 22.624 48.2347 23.392C47.8507 24.16 47.6587 25.248 47.6587 26.656C47.6587 28.064 47.8507 29.16 48.2347 29.944C48.6347 30.712 49.2107 31.096 49.9627 31.096C50.7147 31.096 51.2907 30.712 51.6907 29.944C52.1067 29.16 52.3147 28.064 52.3147 26.656ZM56.4187 26.656C56.4187 27.888 56.2587 28.984 55.9387 29.944C55.6187 30.904 55.1707 31.712 54.5947 32.368C54.0347 33.008 53.3547 33.496 52.5547 33.832C51.7707 34.168 50.9147 34.336 49.9867 34.336C49.0427 34.336 48.1707 34.168 47.3707 33.832C46.5867 33.496 45.9067 33.008 45.3307 32.368C44.7707 31.712 44.3307 30.904 44.0107 29.944C43.7067 28.984 43.5547 27.888 43.5547 26.656C43.5547 25.424 43.7067 24.336 44.0107 23.392C44.3307 22.432 44.7707 21.632 45.3307 20.992C45.9067 20.336 46.5867 19.84 47.3707 19.504C48.1707 19.168 49.0427 19 49.9867 19C50.9147 19 51.7707 19.168 52.5547 19.504C53.3547 19.84 54.0347 20.336 54.5947 20.992C55.1707 21.632 55.6187 22.432 55.9387 23.392C56.2587 24.336 56.4187 25.424 56.4187 26.656Z" fill="black"/>
<path d="M5 5L6.53809 10.1038C8.3259 16.0364 15.6991 18.062 20.2668 13.8754L28.5895 6.247C29.7001 5.22905 31.4964 5.80307 31.8109 7.27643C31.9308 7.83805 31.7968 8.42396 31.4447 8.87762L12 39" stroke="#FF9900" stroke-width="8" stroke-linecap="round"/>
</g>
<defs>
<clipPath id="clip0_574_1354">
<rect width="62" height="48" fill="white"/>
</clipPath>
</defs>
</svg>
